<svg width="143" height="31" viewBox="0 0 143 31" fill="none" xmlns="http://www.w3.org/2000/svg">
<path d="M7.87281 5.07062C8.91066 5.07062 9.84472 5.36715 10.675 5.96021C11.5201 6.55326 12.1873 7.36871 12.6766 8.40656C13.1658 9.42958 13.4105 10.5786 13.4105 11.8537C13.4105 12.9657 13.1658 14.0035 12.6766 14.9672C12.1873 15.931 11.5201 16.7019 10.675 17.2802C9.8299 17.8436 8.89583 18.1253 7.87281 18.1253C5.12993 18.1253 3.50644 16.6352 3.00234 13.6551H2.62427L2.84667 17.7917H0V0H2.84667V5.20406L2.62427 9.29614H3.0913C3.38783 7.94694 3.95123 6.9091 4.78151 6.1826C5.62661 5.44128 6.65705 5.07062 7.87281 5.07062ZM6.89427 15.3008C7.60594 15.3008 8.24347 15.1452 8.80687 14.8338C9.37028 14.5224 9.80766 14.0999 10.119 13.5661C10.4452 13.0176 10.6083 12.4023 10.6083 11.7203C10.6083 10.6379 10.2599 9.75576 9.56302 9.07375C8.86618 8.37691 7.9766 8.02849 6.89427 8.02849C6.19743 8.02849 5.56731 8.19158 5.00391 8.51776C4.4405 8.82911 3.99571 9.26649 3.66953 9.82989C3.34335 10.3785 3.18026 10.9864 3.18026 11.6535C3.18026 12.2614 3.34335 12.8471 3.66953 13.4105C4.01054 13.9739 4.46274 14.4335 5.02615 14.7893C5.60437 15.1303 6.22708 15.3008 6.89427 15.3008Z" fill="#3B95FF"/>
<path d="M17.5943 12.4542C17.7574 13.3437 18.1577 14.0554 18.7952 14.5892C19.4476 15.1081 20.263 15.3675 21.2416 15.3675C22.8132 15.3675 24.0586 14.7597 24.9778 13.5439L26.8682 14.8338C26.29 15.931 25.5042 16.7538 24.5108 17.3024C23.5174 17.851 22.4277 18.1253 21.2416 18.1253C20.0703 18.1253 18.988 17.8361 17.9946 17.2579C17.0012 16.6649 16.208 15.8716 15.615 14.8783C15.0367 13.8701 14.7476 12.7729 14.7476 11.5868C14.7476 10.4007 15.0367 9.31097 15.615 8.3176C16.208 7.32423 17.0012 6.53844 17.9946 5.96021C18.988 5.36715 20.0703 5.07062 21.2416 5.07062C22.487 5.07062 23.5841 5.38198 24.533 6.00469C25.4819 6.62739 26.2084 7.50215 26.7125 8.62896C27.2166 9.74094 27.4464 11.016 27.4019 12.4542H17.5943ZM21.2416 7.78385C20.3223 7.78385 19.5365 8.05073 18.8842 8.58448C18.2466 9.1034 17.8241 9.77059 17.6165 10.586H24.7332C24.5553 9.71128 24.1401 9.02927 23.4878 8.54C22.8502 8.0359 22.1015 7.78385 21.2416 7.78385Z" fill="#3B95FF"/>
<path d="M33.0927 11.2755C33.0927 12.595 33.1594 13.4846 33.2928 13.9442C33.4263 14.4038 33.7376 14.7004 34.2269 14.8338C34.731 14.9524 35.7021 15.0117 37.1403 15.0117V17.7917C34.946 17.7917 33.3818 17.6137 32.4477 17.2579C31.5137 16.9021 30.9206 16.309 30.6686 15.4787C30.4313 14.6336 30.3127 13.2326 30.3127 11.2755V8.05073H27.8664V5.20406H30.3127V0.889582H33.0927V5.20406H37.118V8.05073H33.0927V11.2755Z" fill="#3B95FF"/>
<path d="M43.3576 5.07062C45.4482 5.07062 47.0049 5.55989 48.0279 6.53844C49.051 7.50215 49.5625 8.96255 49.5625 10.9196V17.7917H46.827L47.2718 13.5217H46.9382C46.4045 16.5759 44.8032 18.103 42.1345 18.103C40.6073 18.103 39.4657 17.7768 38.7096 17.1245C37.9534 16.4721 37.5753 15.5455 37.5753 14.3445C37.5753 13.0546 38.0868 12.0464 39.1099 11.3199C40.1329 10.5935 41.6081 10.2302 43.5355 10.2302H46.7825C46.6343 9.44441 46.2784 8.86618 45.715 8.49552C45.1665 8.11003 44.3806 7.91729 43.3576 7.91729C42.646 7.91729 42.0455 8.06555 41.5562 8.36208C41.067 8.64378 40.5999 9.08857 40.1551 9.69646L37.8867 8.16193C38.5984 7.13891 39.3916 6.36793 40.2663 5.84901C41.1559 5.33009 42.1863 5.07062 43.3576 5.07062ZM42.557 15.2341C43.8024 15.2341 44.7587 14.9672 45.4259 14.4335C46.0931 13.8997 46.5156 13.1139 46.6936 12.0761H43.5355C42.468 12.0761 41.6822 12.2169 41.1782 12.4986C40.6741 12.7655 40.422 13.1807 40.422 13.7441C40.422 14.1889 40.5999 14.5521 40.9558 14.8338C41.3116 15.1007 41.8453 15.2341 42.557 15.2341Z" fill="#3B95FF"/>
<path d="M56.1158 11.2755C56.1158 12.595 56.1826 13.4846 56.316 13.9442C56.4494 14.4038 56.7608 14.7004 57.2501 14.8338C57.7542 14.9524 58.7253 15.0117 60.1635 15.0117V17.7917C57.9691 17.7917 56.405 17.6137 55.4709 17.2579C54.5368 16.9021 53.9438 16.309 53.6917 15.4787C53.4545 14.6336 53.3359 13.2326 53.3359 11.2755V8.05073H50.8895V5.20406H53.3359V0.889582H56.1158V5.20406H60.1412V8.05073H56.1158V11.2755Z" fill="white"/>
<path d="M64.1355 9.31838C64.3134 8.2064 64.6099 7.35389 65.0251 6.76083C65.4402 6.16778 65.9739 5.76005 66.6263 5.53766C67.2935 5.31526 68.1534 5.20406 69.2061 5.20406V8.29536C68.7613 8.2064 68.3462 8.16193 67.9607 8.16193C66.7894 8.16193 65.885 8.53259 65.2475 9.2739C64.6247 10.0004 64.3134 11.016 64.3134 12.3207V17.7917H61.489V5.18182H64.3134L63.6907 9.31838H64.1355Z" fill="white"/>
<path d="M75.6554 5.07062C77.7459 5.07062 79.3027 5.55989 80.3257 6.53844C81.3487 7.50215 81.8603 8.96255 81.8603 10.9196V17.7917H79.1248L79.5696 13.5217H79.236C78.7022 16.5759 77.101 18.103 74.4322 18.103C72.9051 18.103 71.7635 17.7768 71.0073 17.1245C70.2512 16.4721 69.8731 15.5455 69.8731 14.3445C69.8731 13.0546 70.3846 12.0464 71.4076 11.3199C72.4307 10.5935 73.9059 10.2302 75.8333 10.2302H79.0803C78.932 9.44441 78.5762 8.86618 78.0128 8.49552C77.4642 8.11003 76.6784 7.91729 75.6554 7.91729C74.9437 7.91729 74.3433 8.06555 73.854 8.36208C73.3647 8.64378 72.8977 9.08857 72.4529 9.69646L70.1845 8.16193C70.8961 7.13891 71.6893 6.36793 72.5641 5.84901C73.4537 5.33009 74.4841 5.07062 75.6554 5.07062ZM74.8548 15.2341C76.1002 15.2341 77.0565 14.9672 77.7237 14.4335C78.3909 13.8997 78.8134 13.1139 78.9913 12.0761H75.8333C74.7658 12.0761 73.98 12.2169 73.4759 12.4986C72.9718 12.7655 72.7198 13.1807 72.7198 13.7441C72.7198 14.1889 72.8977 14.5521 73.2535 14.8338C73.6094 15.1007 74.1431 15.2341 74.8548 15.2341Z" fill="white"/>
<path d="M91.3109 4.87047C93.0752 4.87047 94.3947 5.41904 95.2695 6.5162C96.1591 7.61335 96.6039 9.3851 96.6039 11.8315V17.7917H93.8462V11.8315C93.8462 10.4229 93.5793 9.3851 93.0455 8.71792C92.5118 8.05073 91.6667 7.71713 90.5102 7.71713C89.3389 7.71713 88.4123 8.11745 87.7303 8.91807C87.0483 9.70387 86.7073 10.8381 86.7073 12.3207V17.7917H83.8606V5.20406H86.7073L86.0845 9.31838H86.5071C86.685 8.13227 86.9815 7.22045 87.3967 6.58292C87.8118 5.93055 88.3307 5.48576 88.9535 5.24854C89.591 4.99649 90.3768 4.87047 91.3109 4.87047Z" fill="white"/>
<path d="M100.604 13.2103C100.96 13.9072 101.404 14.4409 101.938 14.8116C102.487 15.1674 103.183 15.3453 104.029 15.3453C105.837 15.3453 106.742 14.9524 106.742 14.1666C106.742 13.7811 106.564 13.4846 106.208 13.277C105.852 13.0695 105.17 12.8693 104.162 12.6766L103.361 12.5209C101.671 12.2095 100.448 11.7351 99.6919 11.0976C98.9357 10.4452 98.5577 9.58526 98.5577 8.51776C98.5577 7.89505 98.7356 7.32423 99.0914 6.80531C99.4621 6.28639 100.025 5.87125 100.782 5.5599C101.553 5.23371 102.501 5.07062 103.628 5.07062C105.081 5.07062 106.238 5.36715 107.098 5.96021C107.958 6.53844 108.669 7.41319 109.233 8.58448L106.853 9.7187C106.423 9.00703 105.963 8.51035 105.474 8.22864C104.985 7.93212 104.37 7.78385 103.628 7.78385C102.798 7.78385 102.198 7.88764 101.827 8.09521C101.471 8.28795 101.293 8.54741 101.293 8.87359C101.293 9.2146 101.434 9.48147 101.716 9.67422C102.012 9.86696 102.561 10.0523 103.361 10.2302L104.162 10.3859C105.556 10.6379 106.631 10.9493 107.387 11.3199C108.158 11.6906 108.691 12.1206 108.988 12.6098C109.285 13.0843 109.433 13.6625 109.433 14.3445C109.433 14.9672 109.24 15.5677 108.855 16.1459C108.484 16.7093 107.891 17.169 107.075 17.5248C106.26 17.8806 105.244 18.0585 104.029 18.0585C102.531 18.0585 101.308 17.7768 100.359 17.2134C99.425 16.6352 98.617 15.7011 97.935 14.4112L100.604 13.2103Z" fill="white"/>
<path d="M120.088 2.44635C118.858 2.43153 117.983 2.48342 117.464 2.60203C116.96 2.70582 116.611 2.94304 116.419 3.3137C116.241 3.68436 116.137 4.31448 116.107 5.20406H120.088V8.05073H116.085V17.7917H113.305V8.05073H110.837V5.20406H113.305C113.335 3.82521 113.505 2.78736 113.817 2.09052C114.128 1.37885 114.758 0.852517 115.707 0.51151C116.656 0.170503 118.116 0 120.088 0V2.44635Z" fill="white"/>
<path d="M123.37 12.4542C123.534 13.3437 123.934 14.0554 124.571 14.5892C125.224 15.1081 126.039 15.3675 127.018 15.3675C128.589 15.3675 129.835 14.7597 130.754 13.5439L132.644 14.8338C132.066 15.931 131.28 16.7538 130.287 17.3024C129.294 17.851 128.204 18.1253 127.018 18.1253C125.846 18.1253 124.764 17.8361 123.771 17.2579C122.777 16.6649 121.984 15.8716 121.391 14.8783C120.813 13.8701 120.524 12.7729 120.524 11.5868C120.524 10.4007 120.813 9.31097 121.391 8.3176C121.984 7.32423 122.777 6.53844 123.771 5.96021C124.764 5.36715 125.846 5.07062 127.018 5.07062C128.263 5.07062 129.36 5.38198 130.309 6.00469C131.258 6.62739 131.985 7.50215 132.489 8.62896C132.993 9.74094 133.223 11.016 133.178 12.4542H123.37ZM127.018 7.78385C126.098 7.78385 125.313 8.05073 124.66 8.58448C124.023 9.1034 123.6 9.77059 123.393 10.586H130.509C130.331 9.71128 129.916 9.02927 129.264 8.54C128.626 8.0359 127.878 7.78385 127.018 7.78385Z" fill="white"/>
<path d="M137.179 9.31838C137.357 8.2064 137.654 7.35389 138.069 6.76083C138.484 6.16778 139.018 5.76005 139.67 5.53766C140.337 5.31526 141.197 5.20406 142.25 5.20406V8.29536C141.805 8.2064 141.39 8.16193 141.005 8.16193C139.833 8.16193 138.929 8.53259 138.291 9.2739C137.669 10.0004 137.357 11.016 137.357 12.3207V17.7917H134.533V5.18182H137.357L136.735 9.31838H137.179Z" fill="white"/>
<path d="M110.573 23.0078L107.789 26.5914L110.573 30.1929H108.768L106.918 27.723L105.993 28.9086V30.1929H104.511V23.0078H105.993V26.7351L108.768 23.0078H110.573Z" fill="#3B95FF"/>
<path d="M118.265 30.1929L117.69 28.8637H114.304L113.729 30.1929H112.059L115.148 23.0078H116.828L119.935 30.1929H118.265ZM114.96 27.3368L117.025 27.3279L115.992 24.9298L114.96 27.3368Z" fill="#3B95FF"/>
<path d="M122.43 27.6691C122.645 28.0583 122.894 28.3308 123.175 28.4864C123.457 28.6361 123.78 28.711 124.145 28.711C124.547 28.711 124.855 28.6631 125.07 28.5673C125.286 28.4655 125.394 28.3158 125.394 28.1182C125.394 27.8607 125.271 27.6602 125.026 27.5165C124.78 27.3728 124.352 27.244 123.741 27.1303L123.22 27.0315C122.616 26.9177 122.137 26.6542 121.783 26.2411C121.43 25.822 121.253 25.322 121.253 24.7412C121.253 24.382 121.355 24.0736 121.559 23.8161C121.768 23.5527 122.056 23.3521 122.421 23.2144C122.792 23.0767 123.217 23.0078 123.696 23.0078C124.439 23.0078 125.029 23.1485 125.466 23.4299C125.903 23.7054 126.256 24.1574 126.525 24.7861L125.259 25.2981C125.097 25.0166 124.885 24.8041 124.621 24.6604C124.358 24.5167 124.02 24.4448 123.606 24.4448C123.325 24.4448 123.109 24.4838 122.96 24.5616C122.81 24.6394 122.735 24.7891 122.735 25.0107C122.735 25.2142 122.816 25.3639 122.978 25.4597C123.145 25.5495 123.436 25.6423 123.849 25.7381L124.262 25.8369C125.196 26.0585 125.867 26.3758 126.274 26.789C126.681 27.2021 126.882 27.7051 126.876 28.2978C126.87 28.9205 126.612 29.3936 126.103 29.7169C125.6 30.0342 124.918 30.1929 124.056 30.1929C123.325 30.1929 122.726 30.0402 122.259 29.7349C121.792 29.4235 121.361 28.9235 120.966 28.235L122.43 27.6691Z" fill="#3B95FF"/>
<path d="M129.644 27.6691C129.86 28.0583 130.109 28.3308 130.39 28.4864C130.671 28.6361 130.995 28.711 131.36 28.711C131.761 28.711 132.069 28.6631 132.285 28.5673C132.501 28.4655 132.608 28.3158 132.608 28.1182C132.608 27.8607 132.486 27.6602 132.24 27.5165C131.995 27.3728 131.566 27.244 130.956 27.1303L130.435 27.0315C129.83 26.9177 129.351 26.6542 128.998 26.2411C128.645 25.822 128.468 25.322 128.468 24.7412C128.468 24.382 128.57 24.0736 128.773 23.8161C128.983 23.5527 129.27 23.3521 129.635 23.2144C130.007 23.0767 130.432 23.0078 130.911 23.0078C131.653 23.0078 132.243 23.1485 132.68 23.4299C133.117 23.7054 133.471 24.1574 133.74 24.7861L132.474 25.2981C132.312 25.0166 132.099 24.8041 131.836 24.6604C131.572 24.5167 131.234 24.4448 130.821 24.4448C130.54 24.4448 130.324 24.4838 130.174 24.5616C130.025 24.6394 129.95 24.7891 129.95 25.0107C129.95 25.2142 130.031 25.3639 130.192 25.4597C130.36 25.5495 130.65 25.6423 131.064 25.7381L131.477 25.8369C132.411 26.0585 133.081 26.3758 133.488 26.789C133.896 27.2021 134.096 27.7051 134.09 28.2978C134.084 28.9205 133.827 29.3936 133.318 29.7169C132.815 30.0342 132.132 30.1929 131.27 30.1929C130.54 30.1929 129.941 30.0402 129.474 29.7349C129.007 29.4235 128.576 28.9235 128.181 28.235L129.644 27.6691Z" fill="#3B95FF"/>
<path d="M141.329 30.1929L140.754 28.8637H137.369L136.794 30.1929H135.123L138.213 23.0078H139.892L143 30.1929H141.329ZM138.024 27.3368L140.09 27.3279L139.057 24.9298L138.024 27.3368Z" fill="#3B95FF"/>
</svg>
