<svg width="82" height="85" viewBox="0 0 82 85" fill="none" xmlns="http://www.w3.org/2000/svg">
<rect y="0.509766" width="82" height="84.092" rx="20" fill="#3B95FF"/>
<path d="M35.9045 27.109C38.1155 27.109 40.1054 27.7568 41.8741 29.0524C43.6745 30.3481 45.0958 32.1296 46.1381 34.3969C47.1805 36.6319 47.7016 39.1422 47.7016 41.9279C47.7016 44.3572 47.1805 46.6246 46.1381 48.73C45.0958 50.8354 43.6745 52.5197 41.8741 53.783C40.0738 55.0138 38.0839 55.6292 35.9045 55.6292C30.0613 55.6292 26.6027 52.374 25.5288 45.8634H24.7234L25.1972 54.9005H19.1328V16.0312H25.1972V27.4005L24.7234 36.3404H25.7183C26.35 33.3928 27.5503 31.1255 29.319 29.5383C31.1194 27.9187 33.3146 27.109 35.9045 27.109ZM33.8199 49.4588C35.336 49.4588 36.6942 49.1187 37.8944 48.4384C39.0947 47.7582 40.0264 46.8351 40.6897 45.669C41.3846 44.4706 41.732 43.1263 41.732 41.6363C41.732 39.2718 40.9898 37.3445 39.5053 35.8545C38.0208 34.3322 36.1256 33.571 33.8199 33.571C32.3354 33.571 30.993 33.9273 29.7928 34.6399C28.5926 35.3201 27.645 36.2756 26.9501 37.5065C26.2553 38.705 25.9078 40.033 25.9078 41.4906C25.9078 42.8186 26.2553 44.0981 26.9501 45.3289C27.6766 46.5598 28.64 47.5639 29.8402 48.3413C31.072 49.0863 32.3986 49.4588 33.8199 49.4588Z" fill="white"/>
<path fill-rule="evenodd" clip-rule="evenodd" d="M47.1018 33.6195H48.9274V40.6645C48.9274 44.9401 49.18 48.0011 49.6854 49.8474C50.2224 51.6613 51.4858 52.9569 53.4756 53.7343C55.4655 54.5117 58.7977 54.9004 63.4723 54.9004V48.827C60.4086 48.827 58.3397 48.6975 57.2659 48.4384C56.2235 48.1468 55.5603 47.499 55.276 46.4949C54.9917 45.4908 54.8496 43.5473 54.8496 40.6645V33.6195H63.425V27.4004H54.8496V17.9746H48.9274V27.4004H41.6484C42.0311 27.6121 42.4044 27.8513 42.7683 28.1179C44.5687 29.4135 45.99 31.195 47.0323 33.4624C47.0566 33.5144 47.0797 33.5668 47.1018 33.6195Z" fill="white"/>
<path d="M26.006 60.7559L22.7745 65.1377L26.006 69.5416H23.9107L21.7634 66.5215L20.6897 67.9711V69.5416H18.9697V60.7559H20.6897V65.3135L23.9107 60.7559H26.006Z" fill="white"/>
<path d="M34.933 69.5416L34.2659 67.9162H30.336L29.6689 69.5416H27.73L31.3159 60.7559H33.2652L36.8719 69.5416H34.933ZM31.097 66.0493L33.4945 66.0383L32.2957 63.106L31.097 66.0493Z" fill="white"/>
<path d="M39.7673 66.4556C40.0174 66.9315 40.3058 67.2646 40.6325 67.455C40.9591 67.638 41.3344 67.7295 41.7583 67.7295C42.2239 67.7295 42.5818 67.671 42.8319 67.5538C43.0821 67.4294 43.2072 67.2463 43.2072 67.0047C43.2072 66.6899 43.0647 66.4446 42.7798 66.2689C42.4949 66.0932 41.998 65.9358 41.2892 65.7967L40.6846 65.6759C39.9827 65.5368 39.4267 65.2146 39.0167 64.7094C38.6067 64.1969 38.4017 63.5856 38.4017 62.8754C38.4017 62.4361 38.5199 62.0591 38.7561 61.7443C38.9994 61.4221 39.3329 61.1768 39.7568 61.0084C40.1877 60.8401 40.6811 60.7559 41.2371 60.7559C42.0988 60.7559 42.7833 60.9279 43.2906 61.272C43.7979 61.6088 44.2079 62.1616 44.5206 62.9303L43.0508 63.5563C42.8632 63.2122 42.6165 62.9523 42.3107 62.7766C42.005 62.6009 41.6123 62.513 41.1328 62.513C40.8062 62.513 40.556 62.5606 40.3823 62.6558C40.2086 62.751 40.1217 62.934 40.1217 63.2049C40.1217 63.4538 40.2155 63.6368 40.4031 63.754C40.5977 63.8638 40.9348 63.9773 41.4143 64.0944L41.8938 64.2152C42.9779 64.4861 43.7562 64.8742 44.2288 65.3794C44.7013 65.8845 44.9341 66.4995 44.9272 67.2244C44.9202 67.9858 44.6214 68.5642 44.0307 68.9595C43.447 69.3476 42.6547 69.5416 41.654 69.5416C40.8062 69.5416 40.1113 69.3549 39.5692 68.9815C39.0272 68.6008 38.5268 67.9894 38.0681 67.1475L39.7673 66.4556Z" fill="white"/>
<path d="M48.1407 66.4556C48.3909 66.9315 48.6793 67.2646 49.0059 67.455C49.3325 67.638 49.7078 67.7295 50.1317 67.7295C50.5973 67.7295 50.9552 67.671 51.2054 67.5538C51.4556 67.4294 51.5807 67.2463 51.5807 67.0047C51.5807 66.6899 51.4382 66.4446 51.1533 66.2689C50.8683 66.0932 50.3715 65.9358 49.6626 65.7967L49.058 65.6759C48.3561 65.5368 47.8002 65.2146 47.3902 64.7094C46.9802 64.1969 46.7752 63.5856 46.7752 62.8754C46.7752 62.4361 46.8933 62.0591 47.1296 61.7443C47.3728 61.4221 47.7064 61.1768 48.1303 61.0084C48.5612 60.8401 49.0546 60.7559 49.6105 60.7559C50.4722 60.7559 51.1567 60.9279 51.664 61.272C52.1713 61.6088 52.5814 62.1616 52.8941 62.9303L51.4243 63.5563C51.2367 63.2122 50.99 62.9523 50.6842 62.7766C50.3784 62.6009 49.9858 62.513 49.5063 62.513C49.1796 62.513 48.9295 62.5606 48.7557 62.6558C48.582 62.751 48.4951 62.934 48.4951 63.2049C48.4951 63.4538 48.589 63.6368 48.7766 63.754C48.9712 63.8638 49.3082 63.9773 49.7877 64.0944L50.2672 64.2152C51.3513 64.4861 52.1297 64.8742 52.6022 65.3794C53.0748 65.8845 53.3076 66.4995 53.3006 67.2244C53.2937 67.9858 52.9949 68.5642 52.4042 68.9595C51.8204 69.3476 51.0282 69.5416 50.0275 69.5416C49.1796 69.5416 48.4847 69.3549 47.9427 68.9815C47.4006 68.6008 46.9003 67.9894 46.4416 67.1475L48.1407 66.4556Z" fill="white"/>
<path d="M61.7025 69.5416L61.0354 67.9162H57.1055L56.4383 69.5416H54.4995L58.0853 60.7559H60.0346L63.6414 69.5416H61.7025ZM57.8664 66.0493L60.264 66.0383L59.0652 63.106L57.8664 66.0493Z" fill="white"/>
</svg>
