<svg width="24" height="24" viewBox="0 0 24 24" fill="none" xmlns="http://www.w3.org/2000/svg">
<path d="M4.47 11.4197L2.73 9.67969L1 11.4197" stroke="#6EFFB9" stroke-width="1.5" stroke-linecap="round" stroke-linejoin="round"/>
<path d="M19.5303 12.5801L21.2703 14.3201L23.0103 12.5801" stroke="#6EFFB9" stroke-width="1.5" stroke-linecap="round" stroke-linejoin="round"/>
<path d="M21.2595 14.3203V12.0002C21.2595 6.88024 17.1095 2.74023 11.9995 2.74023C9.07953 2.74023 6.46953 4.10027 4.76953 6.21027" stroke="#6EFFB9" stroke-width="1.5" stroke-linecap="round" stroke-linejoin="round"/>
<path d="M2.74023 9.67969V11.9997C2.74023 17.1197 6.89024 21.2597 12.0002 21.2597C14.9202 21.2597 17.5302 19.8997 19.2302 17.7897" stroke="#6EFFB9" stroke-width="1.5" stroke-linecap="round" stroke-linejoin="round"/>
<path d="M9 8.5H13.38C14.35 8.5 15.13 9.38 15.13 10.25C15.13 11.22 14.35 12 13.38 12H9V8.5Z" stroke="#6EFFB9" stroke-width="1.5" stroke-miterlimit="10" stroke-linecap="round" stroke-linejoin="round"/>
<path d="M9 12H14C15.1 12 16 12.78 16 13.75C16 14.72 15.1 15.5 14 15.5H9V12Z" stroke="#6EFFB9" stroke-width="1.5" stroke-miterlimit="10" stroke-linecap="round" stroke-linejoin="round"/>
<path d="M11.7998 15.5V17.25" stroke="#6EFFB9" stroke-width="1.5" stroke-miterlimit="10" stroke-linecap="round" stroke-linejoin="round"/>
<path d="M11.7998 6.75V8.5" stroke="#6EFFB9" stroke-width="1.5" stroke-miterlimit="10" stroke-linecap="round" stroke-linejoin="round"/>
</svg>
