<svg width="48" height="48" viewBox="0 0 48 48" fill="none" xmlns="http://www.w3.org/2000/svg">
<path d="M19.6299 24.0004C19.6299 21.5878 21.5864 19.6314 24.0005 19.6314C26.4146 19.6314 28.3721 21.5878 28.3721 24.0004C28.3721 26.4131 26.4146 28.3694 24.0005 28.3694C21.5864 28.3694 19.6299 26.4131 19.6299 24.0004ZM17.2667 24.0004C17.2667 27.7173 20.2814 30.7302 24.0005 30.7302C27.7195 30.7302 30.7342 27.7173 30.7342 24.0004C30.7342 20.2836 27.7195 17.2707 24.0005 17.2707C20.2814 17.2707 17.2667 20.2836 17.2667 24.0004ZM29.4272 17.0039C29.427 17.3149 29.5192 17.619 29.692 17.8777C29.8648 18.1364 30.1105 18.3381 30.398 18.4573C30.6855 18.5764 31.0019 18.6077 31.3072 18.5471C31.6125 18.4866 31.8929 18.3369 32.1131 18.117C32.3333 17.8972 32.4833 17.617 32.5441 17.3119C32.605 17.0069 32.5739 16.6907 32.4549 16.4032C32.3359 16.1158 32.1343 15.8701 31.8756 15.6972C31.6169 15.5243 31.3127 15.4319 31.0014 15.4318H31.0008C30.5836 15.432 30.1836 15.5977 29.8885 15.8924C29.5935 16.1872 29.4275 16.5869 29.4272 17.0039ZM18.7025 34.6683C17.424 34.6101 16.7291 34.3973 16.2672 34.2175C15.655 33.9793 15.2181 33.6956 14.7588 33.2372C14.2995 32.7788 14.0152 32.3426 13.7779 31.7307C13.5979 31.2694 13.3849 30.5747 13.3268 29.2969C13.2632 27.9154 13.2506 27.5004 13.2506 24.0005C13.2506 20.5006 13.2643 20.0868 13.3268 18.7042C13.385 17.4264 13.5996 16.7331 13.7779 16.2704C14.0163 15.6585 14.3002 15.2219 14.7588 14.7629C15.2175 14.3038 15.6539 14.0197 16.2672 13.7825C16.7288 13.6026 17.424 13.3898 18.7025 13.3317C20.0848 13.2682 20.5001 13.2555 24.0005 13.2555C27.5009 13.2555 27.9166 13.2692 29.3 13.3317C30.5786 13.3899 31.2723 13.6043 31.7353 13.7825C32.3476 14.0197 32.7844 14.3045 33.2437 14.7629C33.703 15.2213 33.9862 15.6585 34.2246 16.2704C34.4046 16.7317 34.6176 17.4264 34.6757 18.7042C34.7393 20.0868 34.752 20.5006 34.752 24.0005C34.752 27.5004 34.7393 27.9143 34.6757 29.2969C34.6175 30.5747 34.4035 31.2692 34.2246 31.7307C33.9862 32.3426 33.7024 32.7792 33.2437 33.2372C32.785 33.6951 32.3476 33.9793 31.7353 34.2175C31.2737 34.3974 30.5786 34.6102 29.3 34.6683C27.9177 34.7319 27.5025 34.7445 24.0005 34.7445C20.4985 34.7445 20.0844 34.7319 18.7025 34.6683ZM18.5939 10.9739C17.1979 11.0374 16.244 11.2587 15.4109 11.5826C14.5481 11.9172 13.8177 12.3661 13.0878 13.0943C12.358 13.8226 11.91 14.5537 11.5752 15.416C11.2511 16.2491 11.0297 17.2019 10.9661 18.5971C10.9015 19.9945 10.8867 20.4413 10.8867 24.0004C10.8867 27.5596 10.9015 28.0063 10.9661 29.4037C11.0297 30.799 11.2511 31.7518 11.5752 32.5849C11.91 33.4466 12.3581 34.1786 13.0878 34.9065C13.8176 35.6345 14.5481 36.0827 15.4109 36.4182C16.2455 36.7422 17.1979 36.9634 18.5939 37.027C19.9929 37.0905 20.4392 37.1063 24.0005 37.1063C27.5618 37.1063 28.0088 37.0916 29.407 37.027C30.8032 36.9634 31.7565 36.7422 32.5901 36.4182C33.4524 36.0827 34.1833 35.6348 34.9131 34.9065C35.643 34.1783 36.09 33.4466 36.4257 32.5849C36.7499 31.7518 36.9723 30.7989 37.0348 29.4037C37.0984 28.0053 37.1132 27.5596 37.1132 24.0004C37.1132 20.4413 37.0984 19.9945 37.0348 18.5971C36.9713 17.2018 36.7499 16.2486 36.4257 15.416C36.09 14.5542 35.6418 13.8238 34.9131 13.0943C34.1844 12.3649 33.4524 11.9172 32.5912 11.5826C31.7565 11.2587 30.8031 11.0364 29.4081 10.9739C28.0098 10.9104 27.5628 10.8945 24.0015 10.8945C20.4403 10.8945 19.9929 10.9093 18.5939 10.9739Z" fill="url(#paint0_radial_3557_470)"/>
<path d="M19.6299 24.0004C19.6299 21.5878 21.5864 19.6314 24.0005 19.6314C26.4146 19.6314 28.3721 21.5878 28.3721 24.0004C28.3721 26.4131 26.4146 28.3694 24.0005 28.3694C21.5864 28.3694 19.6299 26.4131 19.6299 24.0004ZM17.2667 24.0004C17.2667 27.7173 20.2814 30.7302 24.0005 30.7302C27.7195 30.7302 30.7342 27.7173 30.7342 24.0004C30.7342 20.2836 27.7195 17.2707 24.0005 17.2707C20.2814 17.2707 17.2667 20.2836 17.2667 24.0004ZM29.4272 17.0039C29.427 17.3149 29.5192 17.619 29.692 17.8777C29.8648 18.1364 30.1105 18.3381 30.398 18.4573C30.6855 18.5764 31.0019 18.6077 31.3072 18.5471C31.6125 18.4866 31.8929 18.3369 32.1131 18.117C32.3333 17.8972 32.4833 17.617 32.5441 17.3119C32.605 17.0069 32.5739 16.6907 32.4549 16.4032C32.3359 16.1158 32.1343 15.8701 31.8756 15.6972C31.6169 15.5243 31.3127 15.4319 31.0014 15.4318H31.0008C30.5836 15.432 30.1836 15.5977 29.8885 15.8924C29.5935 16.1872 29.4275 16.5869 29.4272 17.0039ZM18.7025 34.6683C17.424 34.6101 16.7291 34.3973 16.2672 34.2175C15.655 33.9793 15.2181 33.6956 14.7588 33.2372C14.2995 32.7788 14.0152 32.3426 13.7779 31.7307C13.5979 31.2694 13.3849 30.5747 13.3268 29.2969C13.2632 27.9154 13.2506 27.5004 13.2506 24.0005C13.2506 20.5006 13.2643 20.0868 13.3268 18.7042C13.385 17.4264 13.5996 16.7331 13.7779 16.2704C14.0163 15.6585 14.3002 15.2219 14.7588 14.7629C15.2175 14.3038 15.6539 14.0197 16.2672 13.7825C16.7288 13.6026 17.424 13.3898 18.7025 13.3317C20.0848 13.2682 20.5001 13.2555 24.0005 13.2555C27.5009 13.2555 27.9166 13.2692 29.3 13.3317C30.5786 13.3899 31.2723 13.6043 31.7353 13.7825C32.3476 14.0197 32.7844 14.3045 33.2437 14.7629C33.703 15.2213 33.9862 15.6585 34.2246 16.2704C34.4046 16.7317 34.6176 17.4264 34.6757 18.7042C34.7393 20.0868 34.752 20.5006 34.752 24.0005C34.752 27.5004 34.7393 27.9143 34.6757 29.2969C34.6175 30.5747 34.4035 31.2692 34.2246 31.7307C33.9862 32.3426 33.7024 32.7792 33.2437 33.2372C32.785 33.6951 32.3476 33.9793 31.7353 34.2175C31.2737 34.3974 30.5786 34.6102 29.3 34.6683C27.9177 34.7319 27.5025 34.7445 24.0005 34.7445C20.4985 34.7445 20.0844 34.7319 18.7025 34.6683ZM18.5939 10.9739C17.1979 11.0374 16.244 11.2587 15.4109 11.5826C14.5481 11.9172 13.8177 12.3661 13.0878 13.0943C12.358 13.8226 11.91 14.5537 11.5752 15.416C11.2511 16.2491 11.0297 17.2019 10.9661 18.5971C10.9015 19.9945 10.8867 20.4413 10.8867 24.0004C10.8867 27.5596 10.9015 28.0063 10.9661 29.4037C11.0297 30.799 11.2511 31.7518 11.5752 32.5849C11.91 33.4466 12.3581 34.1786 13.0878 34.9065C13.8176 35.6345 14.5481 36.0827 15.4109 36.4182C16.2455 36.7422 17.1979 36.9634 18.5939 37.027C19.9929 37.0905 20.4392 37.1063 24.0005 37.1063C27.5618 37.1063 28.0088 37.0916 29.407 37.027C30.8032 36.9634 31.7565 36.7422 32.5901 36.4182C33.4524 36.0827 34.1833 35.6348 34.9131 34.9065C35.643 34.1783 36.09 33.4466 36.4257 32.5849C36.7499 31.7518 36.9723 30.7989 37.0348 29.4037C37.0984 28.0053 37.1132 27.5596 37.1132 24.0004C37.1132 20.4413 37.0984 19.9945 37.0348 18.5971C36.9713 17.2018 36.7499 16.2486 36.4257 15.416C36.09 14.5542 35.6418 13.8238 34.9131 13.0943C34.1844 12.3649 33.4524 11.9172 32.5912 11.5826C31.7565 11.2587 30.8031 11.0364 29.4081 10.9739C28.0098 10.9104 27.5628 10.8945 24.0015 10.8945C20.4403 10.8945 19.9929 10.9093 18.5939 10.9739Z" fill="url(#paint1_radial_3557_470)"/>
<defs>
<radialGradient id="paint0_radial_3557_470" cx="0" cy="0" r="1" gradientUnits="userSpaceOnUse" gradientTransform="translate(14.3712 37.2302) scale(34.2378 34.2173)">
<stop offset="0.09" stop-color="#FA8F21"/>
<stop offset="0.78" stop-color="#D82D7E"/>
</radialGradient>
<radialGradient id="paint1_radial_3557_470" cx="0" cy="0" r="1" gradientUnits="userSpaceOnUse" gradientTransform="translate(26.7926 38.4044) scale(26.9841 26.968)">
<stop offset="0.64" stop-color="#8C3AAA" stop-opacity="0"/>
<stop offset="1" stop-color="#8C3AAA"/>
</radialGradient>
</defs>
</svg>
