<svg width="126" height="50" viewBox="0 0 126 50" fill="none" xmlns="http://www.w3.org/2000/svg">
<path d="M23.1581 23.4867C23.7911 20.4448 22.6482 18.2644 20.6085 16.8402C18.7446 15.5917 16.3884 15.4159 13.8916 16.6468L3.51729 21.324C0.914928 22.5021 -0.210418 25.544 0.914927 28.0936C2.09302 30.696 5.08222 31.8213 7.68459 30.696L9.0561 30.063L6.82299 42.1956C6.18999 45.853 8.56376 48.8422 11.7991 49.4752C15.2279 50.1082 18.5688 47.8575 19.1315 44.4287L23.1581 23.4867Z" fill="#38A8FA"/>
<path d="M117.529 15.9441C111.814 15.1177 106.047 18.4586 103.849 23.171L104.218 21.1137C105.15 16.9464 103.409 15.8386 100.438 15.8386H96.5867C92.9293 15.8386 92.1029 17.8256 91.6633 20.129L87.1795 44.9921C86.8103 46.6802 87.0564 49.599 90.3446 49.599H95.69C98.855 49.599 99.4704 47.1197 99.91 44.746L102.073 32.8068C102.583 30.0813 103.005 28.7625 103.937 27.7603C105.361 26.1426 108.227 25.4041 110.214 27.0218C111.392 28.0064 111.832 29.6945 111.515 32.0682L109.352 44.9921C108.878 47.8583 110.091 49.599 112.465 49.599H117.81C120.852 49.599 121.467 47.2428 121.907 44.746L125.037 28.5515C126.496 22.7138 124.439 16.9464 117.529 15.9441Z" fill="white"/>
<path d="M83.2587 12.6034C86.6576 12.6034 89.413 9.87163 89.413 6.50187C89.413 3.13212 86.6576 0.400391 83.2587 0.400391C79.8598 0.400391 77.1045 3.13212 77.1045 6.50187C77.1045 9.87163 79.8598 12.6034 83.2587 12.6034Z" fill="#38A8FA"/>
<path d="M83.6453 44.7101C83.2057 47.3124 82.4672 49.5631 79.4252 49.5631H74.0271C71.4247 49.5631 70.4752 47.6289 70.9851 45.0793L75.4162 20.0931C75.8558 17.4204 77.0339 15.8027 80.3396 15.8027H84.4365C87.9181 15.8027 88.7797 17.4908 88.0412 21.0778L83.6453 44.7101Z" fill="white"/>
<path d="M24.248 15.8027C25.6196 17.4204 27.2372 19.4074 26.4108 24.2604L24.3008 35.6545L24.6701 44.798C24.7404 48.1037 26.3581 49.5279 29.0835 49.5279H36.0466C38.2094 49.5279 39.1589 47.8399 40.0205 45.7475L45.2955 32.7533L45.8582 45.1848C45.9285 47.9103 47.2825 49.5983 49.8321 49.5983H57.7271C59.9602 49.5983 60.8921 48.2268 61.8944 45.8178L72.0225 20.9547C73.1303 18.4051 72.4621 15.8555 69.7191 15.8555H64.6726C62.8087 15.8555 61.5075 16.4885 60.7515 18.282L53.9115 34.916L53.2785 20.0579C53.1554 16.8929 51.6608 15.8379 49.8497 15.8379H44.6977C42.6404 15.8379 41.4623 16.6467 40.8469 18.1941L34.0069 34.9864L33.3739 19.6887C33.3036 16.8226 32.3189 15.8379 30.0154 15.8379H24.248V15.8027Z" fill="white"/>
</svg>
