<svg width="57" height="56" viewBox="0 0 57 56" fill="none" xmlns="http://www.w3.org/2000/svg">
<g clip-path="url(#clip0_2936_24670)">
<path d="M28.4277 50.2058L56.48 55.8981L46.8502 47.5149L28.4277 43.7891V50.2058Z" fill="#004971"/>
<path d="M50.1998 43.0642L42.2446 41.5117L44.5475 46.997L56.4802 55.8977L50.1998 43.0642Z" fill="#0072B2"/>
<path d="M28.5323 50.151L0.47998 55.7946L10.1099 47.4831L28.5323 43.7891V50.151Z" fill="#005D91"/>
<path d="M12.8313 31.3691L0.47998 55.7943L11.994 47.1006L17.2276 36.958L12.8313 31.3691Z" fill="#0072B2"/>
<path d="M28.3232 28.1602L12.8315 31.3686L17.2279 36.9574L28.3232 34.577V28.1602Z" fill="#0087D3"/>
<path d="M35.8591 29.5056L28.3228 28.1602V34.577L47.7918 38.4064L35.8591 29.5056Z" fill="#0072B3"/>
<path d="M28.3228 0.00976562L47.7918 38.407L35.8591 29.5064L28.3228 14.8098V0.00976562Z" fill="#0087D3"/>
<path d="M23.5083 24.3314L28.3233 14.8098V0.00976562L15.0298 26.1944L23.5083 24.3314Z" fill="#00A3FF"/>
</g>
<defs>
<clipPath id="clip0_2936_24670">
<rect width="56" height="56" fill="white" transform="translate(0.47998)"/>
</clipPath>
</defs>
</svg>
