<svg width="405" height="29" viewBox="0 0 405 29" fill="none" xmlns="http://www.w3.org/2000/svg">
<path d="M391.134 21.7002C391.134 22.2829 391.248 22.7896 391.476 23.2203C391.729 23.6256 392.046 23.9676 392.426 24.2463C392.806 24.4996 393.237 24.6896 393.718 24.8162C394.225 24.9429 394.744 25.0063 395.276 25.0063C395.656 25.0063 396.049 24.9683 396.454 24.8923C396.885 24.7909 397.265 24.6516 397.594 24.4743C397.949 24.2716 398.24 24.0182 398.468 23.7142C398.696 23.3849 398.81 22.9796 398.81 22.4983C398.81 21.6876 398.265 21.0796 397.176 20.6743C396.112 20.2689 394.617 19.8636 392.692 19.4582C391.907 19.2809 391.134 19.0782 390.374 18.8502C389.639 18.5969 388.981 18.2803 388.398 17.9003C387.815 17.4949 387.347 17.0009 386.992 16.4183C386.637 15.8102 386.46 15.0756 386.46 14.2142C386.46 12.9476 386.701 11.9089 387.182 11.0982C387.689 10.2876 388.347 9.65425 389.158 9.19825C389.969 8.71692 390.881 8.38758 391.894 8.21025C392.907 8.00758 393.946 7.90625 395.01 7.90625C396.074 7.90625 397.1 8.00758 398.088 8.21025C399.101 8.41292 400.001 8.75492 400.786 9.23625C401.571 9.71758 402.217 10.3636 402.724 11.1742C403.256 11.9596 403.573 12.9602 403.674 14.1762H398.544C398.468 13.1376 398.075 12.4409 397.366 12.0862C396.657 11.7062 395.821 11.5162 394.858 11.5162C394.554 11.5162 394.225 11.5416 393.87 11.5922C393.515 11.6176 393.186 11.6936 392.882 11.8202C392.603 11.9469 392.363 12.1369 392.16 12.3903C391.957 12.6183 391.856 12.9349 391.856 13.3403C391.856 13.8216 392.033 14.2142 392.388 14.5182C392.743 14.8222 393.199 15.0756 393.756 15.2782C394.339 15.4556 394.997 15.6202 395.732 15.7723C396.467 15.9242 397.214 16.0889 397.974 16.2662C398.759 16.4436 399.519 16.6589 400.254 16.9123C401.014 17.1656 401.685 17.5076 402.268 17.9383C402.851 18.3436 403.319 18.8629 403.674 19.4962C404.029 20.1042 404.206 20.8643 404.206 21.7762C404.206 23.0682 403.94 24.1576 403.408 25.0443C402.901 25.9056 402.23 26.6023 401.394 27.1343C400.558 27.6663 399.595 28.0336 398.506 28.2363C397.442 28.4643 396.353 28.5783 395.238 28.5783C394.098 28.5783 392.983 28.4643 391.894 28.2363C390.805 28.0083 389.829 27.6282 388.968 27.0962C388.132 26.5642 387.435 25.8676 386.878 25.0063C386.346 24.1196 386.055 23.0176 386.004 21.7002H391.134Z" fill="white"/>
<path d="M368.511 18.2802C368.511 19.0656 368.587 19.8383 368.739 20.5983C368.891 21.3329 369.145 22.0043 369.499 22.6123C369.879 23.1949 370.373 23.6636 370.981 24.0182C371.589 24.3729 372.349 24.5503 373.261 24.5503C374.173 24.5503 374.933 24.3729 375.541 24.0182C376.175 23.6636 376.669 23.1949 377.023 22.6123C377.403 22.0043 377.669 21.3329 377.821 20.5983C377.973 19.8383 378.049 19.0656 378.049 18.2802C378.049 17.4949 377.973 16.7223 377.821 15.9623C377.669 15.2023 377.403 14.5309 377.023 13.9482C376.669 13.3656 376.175 12.8969 375.541 12.5422C374.933 12.1622 374.173 11.9722 373.261 11.9722C372.349 11.9722 371.589 12.1622 370.981 12.5422C370.373 12.8969 369.879 13.3656 369.499 13.9482C369.145 14.5309 368.891 15.2023 368.739 15.9623C368.587 16.7223 368.511 17.4949 368.511 18.2802ZM363.115 18.2802C363.115 16.7096 363.356 15.2909 363.837 14.0243C364.319 12.7322 365.003 11.6429 365.889 10.7562C366.776 9.84425 367.84 9.14758 369.081 8.66625C370.323 8.15958 371.716 7.90625 373.261 7.90625C374.807 7.90625 376.2 8.15958 377.441 8.66625C378.708 9.14758 379.785 9.84425 380.671 10.7562C381.558 11.6429 382.242 12.7322 382.723 14.0243C383.205 15.2909 383.445 16.7096 383.445 18.2802C383.445 19.8509 383.205 21.2696 382.723 22.5363C382.242 23.8029 381.558 24.8922 380.671 25.8042C379.785 26.6909 378.708 27.3749 377.441 27.8563C376.2 28.3376 374.807 28.5783 373.261 28.5783C371.716 28.5783 370.323 28.3376 369.081 27.8563C367.84 27.3749 366.776 26.6909 365.889 25.8042C365.003 24.8922 364.319 23.8029 363.837 22.5363C363.356 21.2696 363.115 19.8509 363.115 18.2802Z" fill="white"/>
<path d="M341.198 8.43825H346.328V11.1742H346.442C347.126 10.0343 348.012 9.21092 349.102 8.70425C350.191 8.17225 351.306 7.90625 352.446 7.90625C353.89 7.90625 355.068 8.10892 355.98 8.51425C356.917 8.89425 357.652 9.43892 358.184 10.1482C358.716 10.8322 359.083 11.6809 359.286 12.6942C359.514 13.6822 359.628 14.7842 359.628 16.0002V28.0843H354.232V16.9882C354.232 15.3669 353.978 14.1636 353.472 13.3782C352.965 12.5676 352.066 12.1622 350.774 12.1622C349.304 12.1622 348.24 12.6056 347.582 13.4923C346.923 14.3536 346.594 15.7849 346.594 17.7863V28.0843H341.198V8.43825Z" fill="white"/>
<path d="M336.949 5.39913H331.553V0.953125H336.949V5.39913ZM331.553 8.43913H336.949V28.0851H331.553V8.43913Z" fill="white"/>
<path d="M315.171 21.7002C315.171 22.2829 315.285 22.7896 315.513 23.2203C315.766 23.6256 316.083 23.9676 316.463 24.2463C316.843 24.4996 317.274 24.6896 317.755 24.8162C318.262 24.9429 318.781 25.0063 319.313 25.0063C319.693 25.0063 320.086 24.9683 320.491 24.8923C320.922 24.7909 321.302 24.6516 321.631 24.4743C321.986 24.2716 322.277 24.0182 322.505 23.7142C322.733 23.3849 322.847 22.9796 322.847 22.4983C322.847 21.6876 322.302 21.0796 321.213 20.6743C320.149 20.2689 318.654 19.8636 316.729 19.4582C315.944 19.2809 315.171 19.0782 314.411 18.8502C313.676 18.5969 313.018 18.2803 312.435 17.9003C311.852 17.4949 311.384 17.0009 311.029 16.4183C310.674 15.8102 310.497 15.0756 310.497 14.2142C310.497 12.9476 310.738 11.9089 311.219 11.0982C311.726 10.2876 312.384 9.65425 313.195 9.19825C314.006 8.71692 314.918 8.38758 315.931 8.21025C316.944 8.00758 317.983 7.90625 319.047 7.90625C320.111 7.90625 321.137 8.00758 322.125 8.21025C323.138 8.41292 324.038 8.75492 324.823 9.23625C325.608 9.71758 326.254 10.3636 326.761 11.1742C327.293 11.9596 327.61 12.9602 327.711 14.1762H322.581C322.505 13.1376 322.112 12.4409 321.403 12.0862C320.694 11.7062 319.858 11.5162 318.895 11.5162C318.591 11.5162 318.262 11.5416 317.907 11.5922C317.552 11.6176 317.223 11.6936 316.919 11.8202C316.64 11.9469 316.4 12.1369 316.197 12.3903C315.994 12.6183 315.893 12.9349 315.893 13.3403C315.893 13.8216 316.07 14.2142 316.425 14.5182C316.78 14.8222 317.236 15.0756 317.793 15.2782C318.376 15.4556 319.034 15.6202 319.769 15.7723C320.504 15.9242 321.251 16.0889 322.011 16.2662C322.796 16.4436 323.556 16.6589 324.291 16.9123C325.051 17.1656 325.722 17.5076 326.305 17.9383C326.888 18.3436 327.356 18.8629 327.711 19.4962C328.066 20.1042 328.243 20.8643 328.243 21.7762C328.243 23.0682 327.977 24.1576 327.445 25.0443C326.938 25.9056 326.267 26.6023 325.431 27.1343C324.595 27.6663 323.632 28.0336 322.543 28.2363C321.479 28.4643 320.39 28.5783 319.275 28.5783C318.135 28.5783 317.02 28.4643 315.931 28.2363C314.842 28.0083 313.866 27.6282 313.005 27.0962C312.169 26.5642 311.472 25.8676 310.915 25.0063C310.383 24.1196 310.092 23.0176 310.041 21.7002H315.171Z" fill="white"/>
<path d="M288.942 14.4803C289.018 13.2136 289.335 12.1623 289.892 11.3263C290.45 10.4902 291.159 9.81892 292.02 9.31225C292.882 8.80558 293.844 8.45092 294.908 8.24825C295.998 8.02025 297.087 7.90625 298.176 7.90625C299.164 7.90625 300.165 7.98225 301.178 8.13425C302.192 8.26092 303.116 8.52692 303.952 8.93225C304.788 9.33758 305.472 9.90758 306.004 10.6423C306.536 11.3516 306.802 12.3016 306.802 13.4923V23.7142C306.802 24.6009 306.853 25.4496 306.954 26.2603C307.056 27.0709 307.233 27.6789 307.486 28.0843H302.014C301.913 27.7803 301.824 27.4762 301.748 27.1722C301.698 26.8429 301.66 26.5136 301.634 26.1842C300.773 27.0709 299.76 27.6916 298.594 28.0462C297.429 28.4009 296.238 28.5783 295.022 28.5783C294.085 28.5783 293.211 28.4643 292.4 28.2363C291.59 28.0083 290.88 27.6536 290.272 27.1722C289.664 26.6909 289.183 26.0829 288.828 25.3483C288.499 24.6136 288.334 23.7396 288.334 22.7263C288.334 21.6116 288.524 20.6996 288.904 19.9903C289.31 19.2556 289.816 18.6729 290.424 18.2422C291.058 17.8116 291.767 17.4949 292.552 17.2923C293.363 17.0643 294.174 16.8869 294.984 16.7603C295.795 16.6336 296.593 16.5322 297.378 16.4562C298.164 16.3802 298.86 16.2662 299.468 16.1142C300.076 15.9622 300.558 15.7469 300.912 15.4682C301.267 15.1642 301.432 14.7336 301.406 14.1762C301.406 13.5936 301.305 13.1376 301.102 12.8083C300.925 12.4536 300.672 12.1876 300.342 12.0103C300.038 11.8076 299.671 11.6809 299.24 11.6302C298.835 11.5542 298.392 11.5162 297.91 11.5162C296.846 11.5162 296.01 11.7442 295.402 12.2002C294.794 12.6562 294.44 13.4163 294.338 14.4803H288.942ZM301.406 18.4703C301.178 18.6729 300.887 18.8376 300.532 18.9642C300.203 19.0656 299.836 19.1543 299.43 19.2303C299.05 19.3063 298.645 19.3696 298.214 19.4202C297.784 19.4709 297.353 19.5342 296.922 19.6102C296.517 19.6862 296.112 19.7876 295.706 19.9143C295.326 20.0409 294.984 20.2183 294.68 20.4462C294.402 20.6489 294.174 20.9149 293.996 21.2443C293.819 21.5736 293.73 21.9916 293.73 22.4983C293.73 22.9796 293.819 23.3849 293.996 23.7142C294.174 24.0436 294.414 24.3096 294.718 24.5122C295.022 24.6896 295.377 24.8162 295.782 24.8923C296.188 24.9683 296.606 25.0063 297.036 25.0063C298.1 25.0063 298.924 24.8289 299.506 24.4743C300.089 24.1196 300.52 23.7016 300.798 23.2203C301.077 22.7136 301.242 22.2069 301.292 21.7002C301.368 21.1936 301.406 20.7882 301.406 20.4843V18.4703Z" fill="white"/>
<path d="M279.662 10.0726C279.561 9.38864 279.333 8.76797 278.978 8.21064C278.624 7.62797 278.18 7.12131 277.648 6.69064C277.116 6.25997 276.508 5.93064 275.824 5.70264C275.166 5.44931 274.469 5.32264 273.734 5.32264C272.392 5.32264 271.252 5.58864 270.314 6.12064C269.377 6.62731 268.617 7.32397 268.034 8.21064C267.452 9.07197 267.021 10.06 266.742 11.1746C266.489 12.2893 266.362 13.442 266.362 14.6326C266.362 15.7726 266.489 16.8873 266.742 17.9766C267.021 19.0406 267.452 20.0033 268.034 20.8646C268.617 21.726 269.377 22.4226 270.314 22.9546C271.252 23.4613 272.392 23.7146 273.734 23.7146C275.558 23.7146 276.977 23.1573 277.99 22.0426C279.029 20.928 279.662 19.4586 279.89 17.6346H285.666C285.514 19.332 285.122 20.8646 284.488 22.2326C283.855 23.6006 283.019 24.766 281.98 25.7286C280.942 26.6913 279.726 27.426 278.332 27.9326C276.939 28.4393 275.406 28.6926 273.734 28.6926C271.657 28.6926 269.782 28.338 268.11 27.6286C266.464 26.894 265.07 25.8933 263.93 24.6266C262.79 23.36 261.916 21.878 261.308 20.1806C260.7 18.458 260.396 16.6086 260.396 14.6326C260.396 12.606 260.7 10.7313 261.308 9.00864C261.916 7.26064 262.79 5.74064 263.93 4.44864C265.07 3.15664 266.464 2.14331 268.11 1.40864C269.782 0.673974 271.657 0.306641 273.734 0.306641C275.229 0.306641 276.635 0.521973 277.952 0.952639C279.295 1.38331 280.486 2.01664 281.524 2.85264C282.588 3.66331 283.462 4.67664 284.146 5.89264C284.83 7.10864 285.261 8.50197 285.438 10.0726H279.662Z" fill="white"/>
<path d="M240.08 22.2324H246.046V28.0844H240.08V22.2324Z" fill="white"/>
<path d="M234.001 28.0851H227.275L218.497 0.953125H224.615L230.657 20.0291H230.733L236.851 0.953125H243.007L234.001 28.0851Z" fill="white"/>
<path d="M210.467 22.2324H216.433V28.0844H210.467V22.2324Z" fill="white"/>
<path d="M182.643 0.953125H188.571L199.895 19.1551H199.971V0.953125H205.557V28.0851H199.591L188.305 9.92113H188.229V28.0851H182.643V0.953125Z" fill="white"/>
<path d="M149.448 14.4803C149.524 13.2136 149.841 12.1623 150.398 11.3263C150.956 10.4902 151.665 9.81892 152.526 9.31225C153.388 8.80558 154.35 8.45092 155.414 8.24825C156.504 8.02025 157.593 7.90625 158.682 7.90625C159.67 7.90625 160.671 7.98225 161.684 8.13425C162.698 8.26092 163.622 8.52692 164.458 8.93225C165.294 9.33758 165.978 9.90758 166.51 10.6423C167.042 11.3516 167.308 12.3016 167.308 13.4923V23.7142C167.308 24.6009 167.359 25.4496 167.46 26.2603C167.562 27.0709 167.739 27.6789 167.992 28.0843H162.52C162.419 27.7803 162.33 27.4762 162.254 27.1722C162.204 26.8429 162.166 26.5136 162.14 26.1842C161.279 27.0709 160.266 27.6916 159.1 28.0462C157.935 28.4009 156.744 28.5783 155.528 28.5783C154.591 28.5783 153.717 28.4643 152.906 28.2363C152.096 28.0083 151.386 27.6536 150.778 27.1722C150.17 26.6909 149.689 26.0829 149.334 25.3483C149.005 24.6136 148.84 23.7396 148.84 22.7263C148.84 21.6116 149.03 20.6996 149.41 19.9903C149.816 19.2556 150.322 18.6729 150.93 18.2422C151.564 17.8116 152.273 17.4949 153.058 17.2923C153.869 17.0643 154.68 16.8869 155.49 16.7603C156.301 16.6336 157.099 16.5322 157.884 16.4562C158.67 16.3802 159.366 16.2662 159.974 16.1142C160.582 15.9622 161.064 15.7469 161.418 15.4682C161.773 15.1642 161.938 14.7336 161.912 14.1762C161.912 13.5936 161.811 13.1376 161.608 12.8083C161.431 12.4536 161.178 12.1876 160.848 12.0103C160.544 11.8076 160.177 11.6809 159.746 11.6302C159.341 11.5542 158.898 11.5162 158.416 11.5162C157.352 11.5162 156.516 11.7442 155.908 12.2002C155.3 12.6562 154.946 13.4163 154.844 14.4803H149.448ZM161.912 18.4703C161.684 18.6729 161.393 18.8376 161.038 18.9642C160.709 19.0656 160.342 19.1543 159.936 19.2303C159.556 19.3063 159.151 19.3696 158.72 19.4202C158.29 19.4709 157.859 19.5342 157.428 19.6102C157.023 19.6862 156.618 19.7876 156.212 19.9143C155.832 20.0409 155.49 20.2183 155.186 20.4462C154.908 20.6489 154.68 20.9149 154.502 21.2443C154.325 21.5736 154.236 21.9916 154.236 22.4983C154.236 22.9796 154.325 23.3849 154.502 23.7142C154.68 24.0436 154.92 24.3096 155.224 24.5122C155.528 24.6896 155.883 24.8162 156.288 24.8923C156.694 24.9683 157.112 25.0063 157.542 25.0063C158.606 25.0063 159.43 24.8289 160.012 24.4743C160.595 24.1196 161.026 23.7016 161.304 23.2203C161.583 22.7136 161.748 22.2069 161.798 21.7002C161.874 21.1936 161.912 20.7882 161.912 20.4843V18.4703Z" fill="white"/>
<path d="M128.35 0.953125H133.746V15.5071L140.548 8.43913H146.932L139.522 15.6591L147.768 28.0851H141.232L135.836 19.3071L133.746 21.3211V28.0851H128.35V0.953125Z" fill="white"/>
<path d="M123.607 5.39913H118.211V0.953125H123.607V5.39913ZM118.211 8.43913H123.607V28.0851H118.211V8.43913Z" fill="white"/>
<path d="M111.54 8.43883H115.492V12.0488H111.54V21.7768C111.54 22.6888 111.692 23.2968 111.996 23.6008C112.3 23.9048 112.908 24.0568 113.82 24.0568C114.124 24.0568 114.415 24.0442 114.694 24.0188C114.973 23.9935 115.239 23.9555 115.492 23.9048V28.0848C115.036 28.1608 114.529 28.2115 113.972 28.2368C113.415 28.2622 112.87 28.2748 112.338 28.2748C111.502 28.2748 110.704 28.2115 109.944 28.0848C109.209 27.9835 108.551 27.7682 107.968 27.4388C107.411 27.1095 106.967 26.6408 106.638 26.0328C106.309 25.4248 106.144 24.6268 106.144 23.6388V12.0488H102.876V8.43883H106.144V2.54883H111.54V8.43883Z" fill="white"/>
<path d="M83.3735 0.953125H88.7695V15.5071L95.5715 8.43913H101.956L94.5455 15.6591L102.792 28.0851H96.2555L90.8595 19.3071L88.7695 21.3211V28.0851H83.3735V0.953125Z" fill="white"/>
<path d="M60.8311 14.4803C60.9071 13.2136 61.2238 12.1623 61.7811 11.3263C62.3385 10.4902 63.0478 9.81892 63.9091 9.31225C64.7705 8.80558 65.7331 8.45092 66.7971 8.24825C67.8865 8.02025 68.9758 7.90625 70.0651 7.90625C71.0531 7.90625 72.0538 7.98225 73.0671 8.13425C74.0805 8.26092 75.0051 8.52692 75.8411 8.93225C76.6771 9.33758 77.3611 9.90758 77.8931 10.6423C78.4251 11.3516 78.6911 12.3016 78.6911 13.4923V23.7142C78.6911 24.6009 78.7418 25.4496 78.8431 26.2603C78.9445 27.0709 79.1218 27.6789 79.3751 28.0843H73.9031C73.8018 27.7803 73.7131 27.4762 73.6371 27.1722C73.5865 26.8429 73.5485 26.5136 73.5231 26.1842C72.6618 27.0709 71.6485 27.6916 70.4831 28.0462C69.3178 28.4009 68.1271 28.5783 66.9111 28.5783C65.9738 28.5783 65.0998 28.4643 64.2891 28.2363C63.4785 28.0083 62.7691 27.6536 62.1611 27.1722C61.5531 26.6909 61.0718 26.0829 60.7171 25.3483C60.3878 24.6136 60.2231 23.7396 60.2231 22.7263C60.2231 21.6116 60.4131 20.6996 60.7931 19.9903C61.1985 19.2556 61.7051 18.6729 62.3131 18.2422C62.9465 17.8116 63.6558 17.4949 64.4411 17.2923C65.2518 17.0643 66.0625 16.8869 66.8731 16.7603C67.6838 16.6336 68.4818 16.5322 69.2671 16.4562C70.0525 16.3802 70.7491 16.2662 71.3571 16.1142C71.9651 15.9622 72.4465 15.7469 72.8011 15.4682C73.1558 15.1642 73.3205 14.7336 73.2951 14.1762C73.2951 13.5936 73.1938 13.1376 72.9911 12.8083C72.8138 12.4536 72.5605 12.1876 72.2311 12.0103C71.9271 11.8076 71.5598 11.6809 71.1291 11.6302C70.7238 11.5542 70.2805 11.5162 69.7991 11.5162C68.7351 11.5162 67.8991 11.7442 67.2911 12.2002C66.6831 12.6562 66.3285 13.4163 66.2271 14.4803H60.8311ZM73.2951 18.4703C73.0671 18.6729 72.7758 18.8376 72.4211 18.9642C72.0918 19.0656 71.7245 19.1543 71.3191 19.2303C70.9391 19.3063 70.5338 19.3696 70.1031 19.4202C69.6725 19.4709 69.2418 19.5342 68.8111 19.6102C68.4058 19.6862 68.0005 19.7876 67.5951 19.9143C67.2151 20.0409 66.8731 20.2183 66.5691 20.4462C66.2905 20.6489 66.0625 20.9149 65.8851 21.2443C65.7078 21.5736 65.6191 21.9916 65.6191 22.4983C65.6191 22.9796 65.7078 23.3849 65.8851 23.7142C66.0625 24.0436 66.3031 24.3096 66.6071 24.5122C66.9111 24.6896 67.2658 24.8162 67.6711 24.8923C68.0765 24.9683 68.4945 25.0063 68.9251 25.0063C69.9891 25.0063 70.8125 24.8289 71.3951 24.4743C71.9778 24.1196 72.4085 23.7016 72.6871 23.2203C72.9658 22.7136 73.1305 22.2069 73.1811 21.7002C73.2571 21.1936 73.2951 20.7882 73.2951 20.4843V18.4703Z" fill="white"/>
<path d="M51.4141 0.953125H56.8101V28.0851H51.4141V0.953125Z" fill="white"/>
<path d="M29.214 14.4803C29.29 13.2136 29.6066 12.1623 30.164 11.3263C30.7213 10.4902 31.4306 9.81892 32.292 9.31225C33.1533 8.80558 34.116 8.45092 35.18 8.24825C36.2693 8.02025 37.3586 7.90625 38.448 7.90625C39.436 7.90625 40.4366 7.98225 41.45 8.13425C42.4633 8.26092 43.388 8.52692 44.224 8.93225C45.06 9.33758 45.744 9.90758 46.276 10.6423C46.808 11.3516 47.074 12.3016 47.074 13.4923V23.7142C47.074 24.6009 47.1246 25.4496 47.226 26.2603C47.3273 27.0709 47.5046 27.6789 47.758 28.0843H42.286C42.1846 27.7803 42.096 27.4762 42.02 27.1722C41.9693 26.8429 41.9313 26.5136 41.906 26.1842C41.0446 27.0709 40.0313 27.6916 38.866 28.0462C37.7006 28.4009 36.51 28.5783 35.294 28.5783C34.3566 28.5783 33.4826 28.4643 32.672 28.2363C31.8613 28.0083 31.152 27.6536 30.544 27.1722C29.936 26.6909 29.4546 26.0829 29.1 25.3483C28.7706 24.6136 28.606 23.7396 28.606 22.7263C28.606 21.6116 28.796 20.6996 29.176 19.9903C29.5813 19.2556 30.088 18.6729 30.696 18.2422C31.3293 17.8116 32.0386 17.4949 32.824 17.2923C33.6346 17.0643 34.4453 16.8869 35.256 16.7603C36.0666 16.6336 36.8646 16.5322 37.65 16.4562C38.4353 16.3802 39.132 16.2662 39.74 16.1142C40.348 15.9622 40.8293 15.7469 41.184 15.4682C41.5386 15.1642 41.7033 14.7336 41.678 14.1762C41.678 13.5936 41.5766 13.1376 41.374 12.8083C41.1966 12.4536 40.9433 12.1876 40.614 12.0103C40.31 11.8076 39.9426 11.6809 39.512 11.6302C39.1066 11.5542 38.6633 11.5162 38.182 11.5162C37.118 11.5162 36.282 11.7442 35.674 12.2002C35.066 12.6562 34.7113 13.4163 34.61 14.4803H29.214ZM41.678 18.4703C41.45 18.6729 41.1586 18.8376 40.804 18.9642C40.4746 19.0656 40.1073 19.1543 39.702 19.2303C39.322 19.3063 38.9166 19.3696 38.486 19.4202C38.0553 19.4709 37.6246 19.5342 37.194 19.6102C36.7886 19.6862 36.3833 19.7876 35.978 19.9143C35.598 20.0409 35.256 20.2183 34.952 20.4462C34.6733 20.6489 34.4453 20.9149 34.268 21.2443C34.0906 21.5736 34.002 21.9916 34.002 22.4983C34.002 22.9796 34.0906 23.3849 34.268 23.7142C34.4453 24.0436 34.686 24.3096 34.99 24.5122C35.294 24.6896 35.6486 24.8162 36.054 24.8923C36.4593 24.9683 36.8773 25.0063 37.308 25.0063C38.372 25.0063 39.1953 24.8289 39.778 24.4743C40.3606 24.1196 40.7913 23.7016 41.07 23.2203C41.3486 22.7136 41.5133 22.2069 41.564 21.7002C41.64 21.1936 41.678 20.7882 41.678 20.4843V18.4703Z" fill="white"/>
<path d="M20.786 25.0066C19.722 26.3746 18.544 27.3373 17.252 27.8946C15.96 28.4266 14.6553 28.6926 13.338 28.6926C11.2607 28.6926 9.386 28.338 7.714 27.6286C6.06733 26.894 4.674 25.8933 3.534 24.6266C2.394 23.36 1.52 21.878 0.912 20.1806C0.304 18.458 0 16.6086 0 14.6326C0 12.606 0.304 10.7313 0.912 9.00864C1.52 7.26064 2.394 5.74064 3.534 4.44864C4.674 3.15664 6.06733 2.14331 7.714 1.40864C9.386 0.673974 11.2607 0.306641 13.338 0.306641C14.7313 0.306641 16.074 0.521973 17.366 0.952639C18.6833 1.35797 19.8613 1.96597 20.9 2.77664C21.964 3.58731 22.838 4.58797 23.522 5.77864C24.206 6.96931 24.624 8.33731 24.776 9.88264H19.076C18.7213 8.36264 18.0373 7.22264 17.024 6.46264C16.0107 5.70264 14.782 5.32264 13.338 5.32264C11.9953 5.32264 10.8553 5.58864 9.918 6.12064C8.98067 6.62731 8.22067 7.32397 7.638 8.21064C7.05533 9.07197 6.62467 10.06 6.346 11.1746C6.09267 12.2893 5.966 13.442 5.966 14.6326C5.966 15.7726 6.09267 16.8873 6.346 17.9766C6.62467 19.0406 7.05533 20.0033 7.638 20.8646C8.22067 21.726 8.98067 22.4226 9.918 22.9546C10.8553 23.4613 11.9953 23.7146 13.338 23.7146C15.314 23.7146 16.834 23.2206 17.898 22.2326C18.9873 21.2193 19.6207 19.7626 19.798 17.8626H13.794V13.4166H25.194V28.0846H21.394L20.786 25.0066Z" fill="white"/>
</svg>
