<svg width="145" height="46" viewBox="0 0 145 46" fill="none" xmlns="http://www.w3.org/2000/svg">
<g clip-path="url(#clip0_2936_24638)">
<path fill-rule="evenodd" clip-rule="evenodd" d="M42.1736 4.46484H9.67919C9.60405 4.60736 5.80908 11.2181 5.80908 11.2181L22.0673 39.5599H29.8503L46.0437 11.2181L42.1736 4.46484ZM25.9375 32.7205L13.6362 11.2181L38.2829 11.2404L25.9375 32.7205Z" fill="white"/>
<path fill-rule="evenodd" clip-rule="evenodd" d="M3.86274 14.6816L0 21.429L10.3493 39.5599H18.1101L3.86274 14.6816Z" fill="white"/>
<path d="M109.356 0.5C106.657 0.5 104.463 2.07363 104.463 4.01544C104.463 5.95724 106.658 7.53088 109.356 7.53088C112.053 7.53088 114.248 5.95724 114.248 4.01544C114.248 2.07363 112.053 0.5 109.356 0.5ZM94.6781 3.31324L87.6893 5.07096V10.3441H83.4951V15.9691H87.6893V30.6871C87.6893 33.6621 88.3183 35.7806 89.5897 37.0618C90.8478 38.3444 92.4978 39.1728 94.5102 39.1728C96.9704 39.1728 99.2215 38.821 100.969 38.2939L99.5706 32.4923C99.2215 32.5917 98.1446 32.8441 97.2916 32.8441C96.4386 32.8441 95.7256 32.4047 95.2925 31.7901C94.8446 31.1755 94.6222 30.2372 94.6781 28.3266V15.9691H100.269V10.3441H94.6781V3.31324ZM134.167 9.64044C131.287 9.60778 128.17 10.7153 126.13 13.1574L125.431 10.3456H119.84V45.503H126.829V37.7684C130.981 40.2268 136.502 39.1476 139.41 37.0959C141.675 35.4926 142.933 33.7764 143.771 31.8792C144.792 29.5514 145.001 27.0439 145.001 23.6547C145.001 19.4133 144.581 17.084 143.267 14.9181C142.205 13.1588 140.975 12.0484 139.409 11.1027C138.11 10.3174 136.124 9.66419 134.167 9.64192V9.64044ZM55.5396 10.3441V30.0116C55.5396 34.6182 59.5658 39.1713 64.9327 39.1713C66.316 39.1713 67.5182 39.2292 68.8323 38.8492C70.6767 38.3088 72.3267 37.3691 73.71 35.6559C74.4083 37.0618 75.0374 37.7654 75.8064 38.4691H81.3972C80.6989 37.0632 79.3008 34.9537 79.3008 25.9394V10.3441H72.312V27.9273C72.312 30.736 70.2156 32.8441 67.4195 32.8441C64.6233 32.8441 62.527 30.7346 62.527 27.9228V10.3441H55.5381H55.5396ZM105.861 10.3441V38.4691H112.85V10.3441H105.861ZM132.42 15.2654C134.238 15.2654 135.453 16.1324 136.208 16.891C137.858 18.5626 137.983 21.505 138.011 23.7037C138.179 28.2969 136.348 32.8456 131.19 32.8456C129.456 32.8456 127.793 31.8777 126.829 30.7346V20.1882C127.696 17.28 129.597 15.2936 132.42 15.2669V15.2654Z" fill="white"/>
</g>
<defs>
<clipPath id="clip0_2936_24638">
<rect width="145" height="45" fill="white" transform="translate(0 0.5)"/>
</clipPath>
</defs>
</svg>
