<svg width="176" height="29" viewBox="0 0 176 29" fill="none" xmlns="http://www.w3.org/2000/svg">
<g clip-path="url(#clip0_2936_24705)">
<path d="M82.0073 28.1329H91.8844L92.3725 25.8474H92.4539C93.1046 26.9103 94.1247 27.6957 95.5141 28.2036C96.9019 28.755 98.698 28.989 100.901 28.989C103.798 28.989 106.45 28.3968 108.858 27.137C111.225 25.8804 113.103 24.1808 114.409 21.9754C115.75 19.7374 116.44 17.1919 116.409 14.6068C116.409 11.927 115.47 9.83945 113.593 8.30322C111.715 6.76698 109.145 5.97844 105.879 5.97844C101.718 5.97844 98.5337 7.0026 96.3715 9.01165H96.2902L98.2392 0H88.0384L82.0073 28.1329ZM101.065 12.6088C102.617 12.6088 103.759 12.9229 104.576 13.5512C105.393 14.1796 105.8 15.0875 105.8 16.2703C105.822 17.8613 105.209 19.3995 104.086 20.5648C102.948 21.7853 101.27 22.3775 99.025 22.3775C97.3981 22.3775 96.1682 22.1011 95.4344 21.5105C94.699 20.9586 94.3319 20.1308 94.333 19.027C94.3509 18.2114 94.4878 17.4024 94.7397 16.6237C94.9897 15.7891 95.435 15.0211 96.0413 14.379C96.6468 13.7758 97.3892 13.3166 98.21 13.0376C99.1304 12.7422 100.095 12.5973 101.065 12.6088ZM128.536 19.6616H150.98C151.281 18.3011 151.444 16.9153 151.468 15.5242C151.468 12.2538 150.285 9.81118 147.918 8.15556C145.55 6.54079 141.96 5.71298 137.063 5.71298C132.982 5.71298 129.473 6.42298 126.576 7.76286C123.678 9.10275 121.555 10.9139 120.25 13.1208C118.977 15.2257 118.303 17.6184 118.298 20.0559C118.298 22.9713 119.521 25.2175 121.97 26.7145C123.195 27.4999 124.745 28.0544 126.541 28.4424C128.337 28.8304 130.459 28.9953 132.948 28.9953C137.356 28.9953 141.028 28.4031 143.966 27.1433C146.904 25.8835 149.068 24.0693 150.454 21.666H139.591C138.979 22.2939 138.225 22.7776 137.388 23.0797C136.531 23.3938 135.348 23.5509 133.879 23.5509C132.205 23.5509 130.898 23.2745 129.919 22.6446C128.939 22.0147 128.492 21.1869 128.492 20.1313L128.536 19.6616ZM141.758 14.6963H129.597C130.127 13.3517 130.985 12.4093 132.127 11.8202C133.269 11.2312 134.73 10.9139 136.453 10.9139C138.176 10.9139 139.472 11.228 140.411 11.8202C141.309 12.4108 141.799 13.1994 141.799 14.2235L141.758 14.6963ZM171.676 28.1329L172.899 22.3807C172.086 22.4592 170.981 22.4592 169.634 22.4592C168.82 22.4592 168.248 22.3807 167.921 22.1828C167.595 22.0257 167.433 21.7115 167.433 21.2403C167.467 20.8289 167.535 20.4208 167.636 20.0198L169.185 12.7234H174.695L175.997 6.57691H170.488L171.921 0H161.717L160.286 6.58006H155.556L154.25 12.7234H158.984L157.066 21.6283C156.828 22.5565 156.704 23.5088 156.698 24.4651C156.698 25.5647 156.942 26.3956 157.512 26.9784C158.069 27.5945 158.806 28.0327 159.627 28.235C160.525 28.4706 162.035 28.589 164.156 28.59C165.747 28.59 167.176 28.5502 168.441 28.4706C169.525 28.4151 170.605 28.3024 171.676 28.1329Z" fill="white"/>
<path d="M41.5664 28.1333H66.7041C68.4087 28.1575 70.1094 27.9722 71.7655 27.582C73.3042 27.2076 74.7479 26.5347 76.0086 25.6043C77.2754 24.6219 78.2708 23.3522 78.9061 21.9082C79.6008 20.4097 79.9669 18.9913 79.9669 17.653C79.98 16.4879 79.6241 15.3469 78.9468 14.3826C78.3026 13.4864 77.3475 12.8423 76.2542 12.5667V12.4882C77.7239 11.9761 78.9072 11.0305 79.8042 9.65134C80.713 8.27592 81.1816 6.67228 81.1513 5.04106C81.1513 3.34617 80.5005 2.0864 79.2738 1.25859C78.0081 0.43078 76.2542 0.00195312 74.0091 0.00195312H47.6056L41.5664 28.1333ZM57.3997 6.8569H66.1331C66.7577 6.8387 67.3803 6.93189 67.9699 7.13179C68.1581 7.21144 68.3171 7.34393 68.4262 7.51202C68.5353 7.68012 68.5894 7.87603 68.5816 8.07426C68.5816 8.85966 68.3376 9.48798 67.8479 9.88696C67.3582 10.2859 66.5463 10.4776 65.357 10.4776H56.6253L57.3997 6.8569ZM55.2375 16.8644H64.664C65.6841 16.8644 66.4194 17.0215 66.9091 17.2587C67.1423 17.3698 67.3362 17.5449 67.4668 17.7621C67.5973 17.9792 67.6586 18.2286 67.6429 18.4792C67.6578 18.8541 67.589 19.2277 67.441 19.5747C67.2931 19.9216 67.0695 20.2337 66.7855 20.4898C66.2144 21.0412 65.3993 21.2752 64.2556 21.2752H54.2988L55.2375 16.8644Z" fill="#E83C60"/>
<path d="M41.054 9.2985C41.0515 10.8601 40.888 12.4177 40.5659 13.948C40.2277 15.551 39.7376 17.1206 39.1017 18.6369C36.4086 24.9797 31.0083 28.1449 22.9007 28.1323H0L3.01959 14.0659L3.67036 10.8944H15.2216L13.0155 21.048H19.79C22.8096 21.048 25.0531 20.181 26.5223 18.3683C27.9865 16.5948 28.7268 14.4287 28.7674 11.8667C28.7674 8.71573 26.7679 7.09939 22.8096 7.09939H0.393718L1.90351 -0.000603835H28.6893C30.5145 -0.0197669 32.3358 0.165249 34.1168 0.550745C35.6673 0.945014 36.933 1.49322 37.9531 2.20636C39.9933 3.70333 41.054 6.06737 41.054 9.2985Z" fill="#E83C60"/>
</g>
<defs>
<clipPath id="clip0_2936_24705">
<rect width="176" height="29" fill="white"/>
</clipPath>
</defs>
</svg>
