<svg width="192" height="30" viewBox="0 0 192 30" fill="none" xmlns="http://www.w3.org/2000/svg">
<g clip-path="url(#clip0_2936_24643)">
<path d="M36.41 2.7207L31.79 25.5207H24L27.62 7.6007H27.42L19.28 25.5207H12L11.3 7.6007H11.07L7.43 25.5207H0L4.62 2.7207H17.55L18 15.1907H18.16L23.51 2.7207H36.41Z" fill="white"/>
<path d="M91.46 3.11008L90.26 9.00008C88.1062 8.22732 85.838 7.82168 83.55 7.80008C82.7187 7.77652 81.8881 7.86396 81.08 8.06008C80.1266 8.32008 79.65 8.79674 79.65 9.49008C79.65 10.1834 80.3166 10.6401 81.65 10.8601L83.83 11.2501C85.1967 11.4639 86.5121 11.9283 87.71 12.6201C88.4287 13.0405 89.0207 13.6469 89.4237 14.3755C89.8267 15.1041 90.0258 15.9279 90 16.7601C89.9918 17.9272 89.7254 19.078 89.22 20.1301C88.7607 21.1605 88.109 22.0939 87.3 22.8801C85.7933 24.1872 83.9626 25.0645 82 25.4201C80.4161 25.7596 78.7998 25.924 77.18 25.9101C75.5081 25.9256 73.8372 25.822 72.18 25.6001C70.762 25.3909 69.3591 25.0903 67.98 24.7001L69.18 18.9001C70.4263 19.4317 71.7275 19.8241 73.06 20.0701C74.2732 20.3011 75.5049 20.4216 76.74 20.4301C77.9205 20.5098 79.103 20.3076 80.19 19.8401C80.4187 19.7323 80.6128 19.563 80.7506 19.351C80.8884 19.139 80.9643 18.8928 80.97 18.6401C80.9755 18.4426 80.9223 18.248 80.8173 18.0807C80.7123 17.9134 80.5602 17.781 80.38 17.7001C79.9749 17.5166 79.5482 17.3856 79.11 17.3101L76.57 16.6901C74.1633 16.0834 72.5833 15.3501 71.83 14.4901C71.0547 13.5546 70.6554 12.3639 70.71 11.1501C70.6975 9.994 70.9528 8.85072 71.4559 7.80979C71.959 6.76885 72.6963 5.85852 73.61 5.15008C75.87 3.27008 79.1166 2.33008 83.35 2.33008C84.63 2.33008 85.9633 2.39008 87.35 2.51008C88.7432 2.63417 90.1286 2.83447 91.5 3.11008" fill="white"/>
<path d="M118.23 2.7207L116.86 9.4607H109.17L105.91 25.5207H97.1898L100.45 9.4607H92.7598L94.1298 2.7207H118.23Z" fill="white"/>
<path d="M132.46 9.22961C132.478 8.82824 132.35 8.43385 132.1 8.11961C131.795 7.82856 131.431 7.60788 131.031 7.47311C130.632 7.33834 130.208 7.29277 129.79 7.33961H127.54L126.63 11.7396H128.68C129.663 11.7979 130.639 11.5346 131.46 10.9896C131.757 10.7996 132.003 10.54 132.178 10.2334C132.352 9.92668 132.449 9.58216 132.46 9.22961ZM130.77 18.2296C130.775 17.8789 130.685 17.5333 130.51 17.2296C130.295 16.8348 129.937 16.5377 129.51 16.3996C129.018 16.2658 128.509 16.2051 128 16.2196H125.69L124.75 20.8796H127C128.079 20.9656 129.15 20.6405 130 19.9696C130.254 19.752 130.458 19.482 130.597 19.1782C130.737 18.8744 130.81 18.544 130.81 18.2096L130.77 18.2296ZM141.09 7.82961C141.088 9.28598 140.513 10.6831 139.49 11.7196C138.428 12.8581 137.023 13.6198 135.49 13.8896V14.0196C136.084 13.9968 136.676 14.1113 137.218 14.354C137.761 14.5968 138.241 14.9615 138.62 15.4196C139.285 16.2108 139.64 17.2163 139.62 18.2496C139.615 19.1812 139.403 20.1 138.998 20.9391C138.593 21.7781 138.006 22.5163 137.28 23.0996C135.201 24.7931 132.567 25.6523 129.89 25.5096H115.59L120.21 2.70961H134.35C136.257 2.56954 138.146 3.16335 139.63 4.36961C140.112 4.80406 140.495 5.3368 140.754 5.93193C141.013 6.52707 141.141 7.17076 141.13 7.81961" fill="white"/>
<path d="M165.32 2.72094L164.25 8.09094H153.08L152.4 11.3809H163.08L162.08 16.5909H151.35L150.63 20.1409H162L160.89 25.5109H141L145.62 2.71094H165.32" fill="white"/>
<path d="M191.48 2.7207L190.11 9.4607H182.42L179.16 25.5207H170.43L173.69 9.4607H166L167.37 2.7207H191.47" fill="white"/>
<path d="M52.2002 0C49.2335 0 46.3334 0.879735 43.8666 2.52796C41.3999 4.17618 39.4773 6.51886 38.342 9.25975C37.2067 12.0006 36.9096 15.0166 37.4884 17.9264C38.0672 20.8361 39.4958 23.5088 41.5936 25.6066C43.6914 27.7044 46.3641 29.133 49.2738 29.7118C52.1836 30.2906 55.1996 29.9935 57.9405 28.8582C60.6813 27.7229 63.024 25.8003 64.6722 23.3336C66.3205 20.8668 67.2002 17.9667 67.2002 15C67.2002 13.0302 66.8122 11.0796 66.0584 9.25975C65.3046 7.43986 64.1997 5.78628 62.8068 4.3934C61.4139 3.00052 59.7603 1.89563 57.9405 1.14181C56.1206 0.387986 54.17 0 52.2002 0Z" fill="white"/>
<path d="M59.3402 25L52.2002 21L45.0502 25L46.7002 17L40.6302 11.46L48.8002 10.54L52.2002 3L55.6002 10.48L63.7702 11.4L57.6902 17L59.3402 25ZM52.2002 0C49.2335 0 46.3334 0.879735 43.8666 2.52796C41.3999 4.17618 39.4773 6.51886 38.342 9.25975C37.2067 12.0006 36.9096 15.0166 37.4884 17.9264C38.0672 20.8361 39.4958 23.5088 41.5936 25.6066C43.6914 27.7044 46.3641 29.133 49.2738 29.7118C52.1836 30.2906 55.1996 29.9935 57.9405 28.8582C60.6813 27.7229 63.024 25.8003 64.6722 23.3336C66.3205 20.8668 67.2002 17.9667 67.2002 15C67.2002 13.0302 66.8122 11.0796 66.0584 9.25975C65.3046 7.43986 64.1997 5.78628 62.8068 4.3934C61.4139 3.00052 59.7603 1.89563 57.9405 1.14181C56.1206 0.387986 54.17 0 52.2002 0Z" fill="#F14624"/>
</g>
<defs>
<clipPath id="clip0_2936_24643">
<rect width="191.48" height="30" fill="white"/>
</clipPath>
</defs>
</svg>
