<svg width="164" height="46" viewBox="0 0 164 46" fill="none" xmlns="http://www.w3.org/2000/svg">
<g clip-path="url(#clip0_2936_24653)">
<path fill-rule="evenodd" clip-rule="evenodd" d="M28.6684 2.09961C36.0988 5.24866 41.1847 11.9525 41.1847 19.6909C41.1847 27.4334 36.0972 34.1373 28.6668 37.2831C21.2383 34.1373 16.1489 27.4334 16.1489 19.6913C16.1489 11.9506 21.2383 5.24635 28.6684 2.09961Z" fill="#002DDA"/>
<path fill-rule="evenodd" clip-rule="evenodd" d="M28.6676 2.09875C31.2425 0.730544 34.1798 0 37.2862 0C48.0847 0 56.8511 8.82336 56.8511 19.6923C56.8511 30.5599 48.0847 39.3833 37.2862 39.3833C34.1798 39.3833 31.2425 38.6541 28.666 37.2841C35.1596 34.1369 39.6086 27.433 39.6086 19.6928C39.6086 11.9516 35.1612 5.24827 28.6676 2.09922V2.09875Z" fill="#3B95FF"/>
<path fill-rule="evenodd" clip-rule="evenodd" d="M28.665 37.2827C26.0886 38.6527 23.1497 39.3833 20.0444 39.3833H8.49797L3.30099 44.614C2.82897 45.0895 2.11875 45.2313 1.50064 44.9744C0.882925 44.7166 0.47998 44.1099 0.47998 43.4362V2.54142C0.47998 1.1381 1.61061 0 3.00483 0H20.1071C23.1917 0.00924154 26.1088 0.740247 28.6662 2.09922C22.1711 5.24688 17.722 11.9507 17.722 19.6905C17.722 27.433 22.1711 34.1369 28.665 37.2827Z" fill="#004EE7"/>
<path fill-rule="evenodd" clip-rule="evenodd" d="M89.3152 32.4906H86.3926V21.4586L86.3989 21.5912C86.3989 15.8642 91.7682 11.2832 96.9974 14.4133L95.7052 16.963C92.8595 15.2372 89.3152 16.7994 89.3152 21.0339V32.4906ZM136.067 30.2306C134.254 31.938 131.799 32.9865 129.099 32.9865C123.522 32.9865 118.992 28.5126 118.992 23.001C118.992 17.4898 123.522 13.0141 129.099 13.0141C131.799 13.0141 134.254 14.0626 136.067 15.7699V6.58984H139.204V32.4629H136.067V30.2306ZM129.099 30.3822C125.145 30.3822 122.034 27.1463 122.034 23.001C122.034 18.8543 125.145 15.6646 129.099 15.6646C133.054 15.6646 136.097 18.8543 136.097 23.001C136.097 27.1458 133.054 30.3822 129.099 30.3822H129.099ZM145.593 24.3586C145.849 26.1334 146.655 27.5635 148.008 28.6508C149.383 29.7551 151.09 30.3096 153.132 30.3096C155.515 30.3096 157.452 29.544 158.946 28.0177L160.642 29.9853C159.779 30.9353 158.721 31.6645 157.471 32.175C156.141 32.7166 154.657 32.9874 153.018 32.9874C150.931 32.9874 149.08 32.5632 147.464 31.713C145.858 30.8674 144.615 29.6858 143.738 28.1656C142.859 26.6417 142.42 24.9204 142.42 23.0033C142.42 21.1097 142.847 19.4 143.702 17.8761C144.555 16.3558 145.728 15.1729 147.223 14.3273C148.722 13.4799 150.412 13.0566 152.294 13.0566C154.176 13.0566 155.853 13.479 157.326 14.3259C158.796 15.1715 159.944 16.3545 160.772 17.8733C161.602 19.3991 162.016 21.1471 162.016 23.1165C162.016 23.3401 161.998 23.622 161.964 23.9635H145.546C145.555 24.0582 145.565 24.1515 145.577 24.243C145.582 24.2818 145.587 24.3207 145.593 24.3586ZM159.014 21.5963L159.012 21.5764C158.801 19.8274 158.082 18.3996 156.858 17.2897C155.633 16.1784 154.113 15.6202 152.294 15.6202C150.477 15.6202 148.956 16.1719 147.731 17.2698C146.507 18.3668 145.788 19.802 145.577 21.5773L145.576 21.5963H159.014Z" fill="white"/>
<path fill-rule="evenodd" clip-rule="evenodd" d="M89.2363 13.5534L89.3149 17.3165V32.4925H86.393L86.4276 13.5538L89.2363 13.5534ZM112.68 29.8231L112.358 30.4123C111.777 31.2468 110.896 31.8216 109.861 32.2726C108.76 32.7504 107.454 32.9883 105.946 32.9883C103.751 32.9883 101.992 32.4676 100.673 31.4159C99.3698 30.3767 98.7192 29.0122 98.7192 27.321C98.7192 25.6298 99.3384 24.1802 100.581 23.153C101.841 22.1115 103.845 21.5205 106.589 21.5205H112.426C112.532 21.5205 112.617 21.436 112.617 21.332V20.7904C112.617 19.1769 112.05 17.7721 111.106 16.9136C110.169 16.0606 108.79 15.6253 106.967 15.6253C105.761 15.6253 104.58 15.8231 103.424 16.2182C102.35 16.5846 101.475 17.3147 100.711 17.9126L99.3412 15.4715C100.332 14.7077 101.505 14.1199 102.861 13.7073C104.281 13.2743 105.788 13.0585 107.383 13.0585C110.101 13.0585 112.185 13.7123 113.63 15.0362C115.072 16.3554 115.782 18.3253 115.782 20.9401V32.4921H112.67L112.68 29.8231ZM104.294 24.2006C102.714 24.6617 101.934 25.6621 101.934 27.1713C101.934 28.2359 102.352 29.0741 103.184 29.6868C103.994 30.2829 105.115 30.5869 106.551 30.5869C107.977 30.5869 109.208 30.2704 110.245 29.6401C111.289 29.0057 112.133 28.106 112.603 26.9407C112.612 26.9188 112.617 26.8947 112.617 26.8704V24.0934C112.617 24.0763 112.614 24.0593 112.61 24.043H105.575C104.85 24.043 104.617 24.1386 104.294 24.2001V24.2006ZM72.1963 6.20312H75.2694V32.4754H72.1963V6.20312Z" fill="white"/>
<path fill-rule="evenodd" clip-rule="evenodd" d="M83.362 6.20312V9.25191H64.104V6.20312H83.362Z" fill="white"/>
</g>
<defs>
<clipPath id="clip0_2936_24653">
<rect width="163" height="46" fill="white" transform="translate(0.47998)"/>
</clipPath>
</defs>
</svg>
