<svg width="183" height="19" viewBox="0 0 183 19" fill="none" xmlns="http://www.w3.org/2000/svg">
<g clip-path="url(#clip0_2936_24712)">
<path fill-rule="evenodd" clip-rule="evenodd" d="M17.2532 9.27961C18.0632 9.63961 18.6887 10.1301 19.1297 10.7511C19.5707 11.3721 19.7912 12.1146 19.7912 12.9786C19.7912 14.9766 18.9677 16.4796 17.3207 17.4876C15.6737 18.4956 13.5542 18.9996 10.9622 18.9996H0.0541992L3.8342 0.0996094H13.8512C16.0652 0.0996094 17.7482 0.491105 18.9002 1.27411C20.0522 2.05711 20.6282 3.1686 20.6282 4.60861C20.6282 5.67062 20.3312 6.60211 19.7372 7.40311C19.1432 8.20411 18.3152 8.82961 17.2532 9.27961ZM9.2072 4.55461L8.6402 7.36261H11.8802C13.2842 7.36261 13.9862 6.81361 13.9862 5.71561C13.9862 5.33761 13.8422 5.04961 13.5542 4.85161C13.2662 4.65361 12.8522 4.55461 12.3122 4.55461H9.2072ZM11.3132 14.5446C11.9612 14.5446 12.4832 14.3961 12.8792 14.0991C13.2752 13.8021 13.4732 13.3746 13.4732 12.8166C13.4732 12.4206 13.3247 12.1146 13.0277 11.8986C12.7307 11.6826 12.3572 11.5746 11.9072 11.5746H7.8032L7.2092 14.5446H11.3132ZM29.9972 4.90561L29.5652 7.11961H37.5572L36.6392 11.7096H28.6202L28.1342 14.1936H37.6112L36.6392 18.9996H20.9252L24.7052 0.0996094H40.0682L39.0962 4.90561H29.9972ZM45.9812 5.04061H40.4462L41.4452 0.0996094H58.8872L57.8882 5.04061H52.3532L49.5722 18.9996H43.2002L45.9812 5.04061Z" fill="#FFCE06"/>
<path fill-rule="evenodd" clip-rule="evenodd" d="M93.5874 0.0996094L83.7594 18.9996H76.9284L75.8484 9.03661L70.6644 18.9996H63.8334L61.5654 0.0996094H67.8564L69.0714 10.8726L74.6874 0.0996094H80.5464L81.6264 11.0346L87.3234 0.0996094H93.5874ZM95.3964 0.0996094H101.768L97.9884 18.9996H91.6164L95.3964 0.0996094ZM123.476 0.0996094L119.696 18.9996H114.458L109.031 10.1976L107.276 18.9996H101.066L104.846 0.0996094H110.084L115.511 8.90161L117.266 0.0996094H123.476ZM145.184 0.0996094L141.404 18.9996H136.166L130.739 10.1976L128.984 18.9996H122.774L126.554 0.0996094H131.792L137.219 8.90161L138.974 0.0996094H145.184ZM153.554 4.90561L153.122 7.11961H161.114L160.196 11.7096H152.177L151.691 14.1936H161.168L160.196 18.9996H144.482L148.262 0.0996094H163.625L162.653 4.90561H153.554ZM182.768 6.30961C182.768 7.98362 182.323 9.4461 181.432 10.6971C180.541 11.9481 179.285 12.8796 177.665 13.4916L180.824 18.9996H174.209L171.536 14.2476H169.97L169.025 18.9996H162.653L166.433 0.0996094H174.911C177.395 0.0996094 179.326 0.644104 180.703 1.73311C182.08 2.82211 182.768 4.3476 182.768 6.30961ZM176.315 6.93061C176.315 5.6526 175.523 5.01361 173.939 5.01361H171.806L170.915 9.44161H173.534C174.416 9.44161 175.1 9.22111 175.586 8.78011C176.072 8.33911 176.315 7.72261 176.315 6.93061Z" fill="white"/>
</g>
<defs>
<clipPath id="clip0_2936_24712">
<rect width="183" height="19" fill="white"/>
</clipPath>
</defs>
</svg>
