<svg width="160" height="35" viewBox="0 0 160 35" fill="none" xmlns="http://www.w3.org/2000/svg">
<g clip-path="url(#clip0_3778_4643)">
<path d="M92.4721 10.7C93.893 5.11864 90.4278 0.5 81.9394 0.5H63.5414L56.6484 27.7975L60.6496 34.5122H73.7376C82.3133 34.5122 88.957 30.6004 90.6647 23.8004C91.5247 20.3151 90.5276 17.8778 88.2839 16.6591V16.5738C90.4116 15.2263 91.915 13.1179 92.4721 10.7ZM81.2538 23.581C80.9048 25.0068 79.9201 26.4692 75.8441 26.4692H67.4927L68.9511 20.6197H77.2651C81.2912 20.6075 81.5903 22.1065 81.2039 23.581H81.2538ZM82.9241 10.8828C82.6249 11.9796 81.7649 13.3201 78.2498 13.3201H70.771L72.0174 8.56738H79.4963C83.0487 8.54301 83.2232 9.66416 82.9241 10.8828Z" fill="#14A0FF"/>
<path d="M104.048 21.3387H120.801L122.708 13.2957H106.067L107.364 8.54301H123.842L125.749 0.5H98.7007L90.125 34.5H120.763L122.77 26.457H102.814L104.048 21.3387Z" fill="#14A0FF"/>
<path d="M128.095 0.5L126.176 8.54301H136.185L129.616 34.5H140.124L146.705 8.54301H157.425L159.482 0.5H128.095Z" fill="#14A0FF"/>
<path d="M11.4744 34.5H0.87934L5.46636 16.3423L6.52586 13.6004L3.7213 16.3423L0.605116 19.4254L0.480469 10.3588L11.4744 0.5H20.0376L11.4744 34.5Z" fill="white"/>
<path d="M49.7281 20.4125L46.3501 14.819L62.7412 0.5H47.4719L41.2396 6.34946L20.0994 25.2993L9.95312 34.5H24.3997L35.2565 25.0312L38.9087 31.1244C40.1551 32.6599 41.9127 34.5244 49.3666 34.5244H58.0919L49.7405 20.4004L49.7281 20.4125Z" fill="white"/>
<path d="M40.0689 4.47309V4.39997C39.1336 3.12439 37.8857 2.09886 36.4396 1.4175C34.9935 0.736142 33.3955 0.420773 31.7923 0.500331H20.5117L28.9254 14.4903L40.0689 4.47309Z" fill="white"/>
</g>
<defs>
<clipPath id="clip0_3778_4643">
<rect width="159" height="34" fill="white" transform="translate(0.480469 0.5)"/>
</clipPath>
</defs>
</svg>
