<svg width="475" height="178" viewBox="0 0 475 178" fill="none" xmlns="http://www.w3.org/2000/svg">
<path fill-rule="evenodd" clip-rule="evenodd" d="M411.331 22.7866C413.922 19.5493 417.904 17.5218 422.292 17.5299L439.931 17.5625C439.963 17.5625 439.995 17.5627 440.028 17.563C440.057 17.5633 440.086 17.5636 440.115 17.564C444.589 17.631 449.009 18.445 453.222 20.1681C458.051 22.1427 462.219 25.3686 465.256 29.8428C468.878 35.1539 469.786 41.135 469.417 46.5275L469.411 46.6162C469.107 50.6845 468.139 54.9472 465.978 58.9155L465.944 58.978C464.747 61.1497 463.292 63.1154 461.615 64.8643L464.738 73.7957C465.204 75.1272 465.465 76.5206 465.514 77.9285C467.867 78.7477 469.987 80.1897 471.626 82.1398C474.286 85.3032 475.413 89.4803 474.704 93.5522L466.447 140.962C465.279 147.666 459.46 152.559 452.654 152.559H441.383C439.685 152.559 438.023 152.251 436.469 151.669C434.923 152.249 433.262 152.559 431.554 152.559H424.116C422.315 152.559 420.583 152.217 418.988 151.589C417.394 152.217 415.662 152.559 413.861 152.559H402.655C398.935 152.559 395.386 151.08 392.774 148.477C391.78 149.063 390.757 149.602 389.707 150.095L389.624 150.133C384.731 152.389 379.525 153.308 374.287 153.208L374.276 153.208C369.186 153.107 363.981 152.005 359.216 149.28L359.167 149.251C356.866 147.923 354.778 146.324 352.932 144.471C350.21 146.882 347.117 148.809 343.728 150.244C338.778 152.348 333.551 153.309 328.203 153.208L328.189 153.208C323.181 153.109 317.978 152.069 313.217 149.359C313.187 149.342 313.158 149.325 313.129 149.308C312.274 148.813 311.449 148.28 310.656 147.709L310.296 147.889C306.508 151.237 301.825 152.928 296.945 152.95C296.712 152.952 296.477 152.951 296.24 152.945L257.798 152.559H250.693C246.588 152.559 242.692 150.759 240.034 147.636C237.446 150.672 233.6 152.559 229.374 152.559H218.135C215.737 152.559 213.409 151.944 211.358 150.81C209.308 151.944 206.981 152.559 204.582 152.559H192.885C188.846 152.559 185.169 150.839 182.597 148.055C179.988 150.881 176.278 152.559 172.308 152.559H159.891C156.576 152.559 153.425 151.387 150.948 149.332C150.583 149.495 150.215 149.654 149.844 149.807L149.794 149.828C145.134 151.73 140.234 152.586 135.255 152.559H119.634C115.5 152.559 111.578 150.733 108.918 147.57C106.258 144.406 105.132 140.229 105.841 136.157L114.098 88.7481C114.51 86.3825 115.501 84.2423 116.91 82.463C116.42 80.5609 116.33 78.5546 116.675 76.5732L124.921 29.1322C126.087 22.4259 131.908 17.5299 138.715 17.5299H169.705C170.472 17.5299 171.231 17.5927 171.976 17.7152C172.719 17.5932 173.48 17.5299 174.254 17.5299H185.479C189.613 17.5299 193.536 19.357 196.196 22.5215C197.761 24.3838 198.795 26.5973 199.236 28.9336C200.481 22.329 206.254 17.5299 212.993 17.5299H224.153C225.96 17.5299 227.727 17.8792 229.366 18.5369C230.994 17.8826 232.766 17.5265 234.61 17.5299L252.249 17.5625C252.311 17.5626 252.372 17.5631 252.433 17.564C256.908 17.631 261.327 18.445 265.54 20.1681C265.976 20.3464 266.407 20.535 266.832 20.7338C269.27 18.721 272.388 17.5299 275.745 17.5299H314.427C318.56 17.5299 322.482 19.3563 325.142 22.5197C325.236 22.6314 325.328 22.7444 325.418 22.8586C328.002 19.586 331.999 17.5299 336.41 17.5299H367.401C370.694 17.5299 373.852 18.6888 376.346 20.7594C376.897 20.473 377.457 20.2002 378.026 19.941C382.881 17.7069 388.044 16.7851 393.246 16.88C398.339 16.9537 403.562 18.0487 408.34 20.8123C409.382 21.415 410.38 22.0736 411.331 22.7866ZM24.1878 0H80.0986C93.4964 0 104.286 10.8782 104.286 24.2095V153.02C104.286 166.351 93.4964 177.23 80.0986 177.23H24.1878C10.7901 177.23 0 166.351 0 153.02V24.2095C0 10.8782 10.7901 0 24.1878 0Z" fill="#FAFAFA"/>
<path fill-rule="evenodd" clip-rule="evenodd" d="M24.1878 15.6716H80.0986C84.802 15.6716 88.6149 19.4942 88.6149 24.2095V153.02C88.6149 157.736 84.802 161.558 80.0986 161.558H24.1878C19.4845 161.558 15.6716 157.736 15.6716 153.02V24.2095C15.6716 19.4942 19.4845 15.6716 24.1878 15.6716ZM44.923 22.7247C44.3095 22.7247 43.8122 23.2233 43.8122 23.8383C43.8122 24.4533 44.3095 24.9519 44.923 24.9519H59.3635C59.977 24.9519 60.4743 24.4533 60.4743 23.8383C60.4743 23.2233 59.977 22.7247 59.3635 22.7247H44.923ZM69.7311 22.7247C69.1176 22.7247 68.6203 23.2233 68.6203 23.8383C68.6203 24.4533 69.1176 24.9519 69.7311 24.9519C70.3446 24.9519 70.8419 24.4533 70.8419 23.8383C70.8419 23.2233 70.3446 22.7247 69.7311 22.7247ZM17.523 31.2625V145.967H86.7635V31.2625H17.523ZM48.003 149.679C47.6926 149.679 47.4152 149.873 47.308 150.165C46.994 151.021 46.8369 152.096 46.8369 153.391C46.8369 154.687 46.994 155.762 47.308 156.618C47.4152 156.91 47.6926 157.104 48.0029 157.104H55.9383C56.2361 157.104 56.5049 156.925 56.6206 156.65C56.9822 155.79 57.1629 154.704 57.1629 153.391C57.1629 152.079 56.9822 150.993 56.6206 150.133C56.5049 149.858 56.2361 149.679 55.9383 149.679H48.003Z" fill="url(#paint0_linear_6180_10530)"/>
<path fill-rule="evenodd" clip-rule="evenodd" d="M24.1878 14H80.0986C85.7292 14 90.2865 18.575 90.2865 24.2095V153.02C90.2865 158.655 85.7292 163.23 80.0986 163.23H24.1878C18.5572 163.23 14 158.655 14 153.02V24.2095C14 18.575 18.5572 14 24.1878 14ZM47.308 150.165C46.9939 151.021 46.8369 152.096 46.8369 153.391C46.8369 154.687 46.9939 155.762 47.308 156.618C47.4152 156.91 47.6926 157.104 48.0029 157.104H55.9383C56.2361 157.104 56.5049 156.925 56.6206 156.65C56.9821 155.79 57.1629 154.704 57.1629 153.391C57.1629 152.079 56.9821 150.993 56.6206 150.133C56.5049 149.858 56.2361 149.679 55.9383 149.679H48.0029C47.6926 149.679 47.4152 149.873 47.308 150.165ZM69.7311 24.3963C70.0448 24.3963 70.2919 24.1424 70.2919 23.8383C70.2919 23.5341 70.0448 23.2803 69.7311 23.2803C69.4173 23.2803 69.1702 23.5341 69.1702 23.8383C69.1702 24.1424 69.4173 24.3963 69.7311 24.3963ZM86.7635 145.967V31.2625H17.523V145.967H86.7635ZM19.1946 144.296H85.0919V32.9341H19.1946V144.296ZM48.7009 151.351C48.5802 151.89 48.5085 152.564 48.5085 153.391C48.5085 154.219 48.5802 154.893 48.7009 155.432H55.2696C55.4077 154.902 55.4913 154.23 55.4913 153.391C55.4913 152.553 55.4077 151.881 55.2696 151.351H48.7009ZM80.0986 15.6716H24.1878C19.4845 15.6716 15.6716 19.4942 15.6716 24.2095V153.02C15.6716 157.736 19.4845 161.558 24.1878 161.558H80.0986C84.802 161.558 88.6148 157.736 88.6148 153.02V24.2095C88.6148 19.4942 84.802 15.6716 80.0986 15.6716ZM43.8121 23.8383C43.8121 23.2232 44.3095 22.7246 44.923 22.7246H59.3635C59.977 22.7246 60.4743 23.2232 60.4743 23.8383C60.4743 24.4533 59.977 24.9519 59.3635 24.9519H44.923C44.3095 24.9519 43.8121 24.4533 43.8121 23.8383ZM68.6202 23.8383C68.6202 23.2232 69.1176 22.7246 69.7311 22.7246C70.3445 22.7246 70.8419 23.2232 70.8419 23.8383C70.8419 24.4533 70.3445 24.9519 69.7311 24.9519C69.1176 24.9519 68.6202 24.4533 68.6202 23.8383Z" fill="#252525"/>
<path d="M149.939 31.5299L141.66 78.9709H130.468L138.715 31.5299H149.939ZM164.469 51.2752L162.931 60.0727H141.725L143.263 51.2752H164.469ZM169.705 31.5299L168.167 40.3599H145.129L146.7 31.5299H169.705Z" fill="#AD2462"/>
<path d="M198.144 70.1735L196.606 78.9709H173.174L174.712 70.1735H198.144ZM185.479 31.5299L177.2 78.9709H166.007L174.254 31.5299H185.479Z" fill="#AD2462"/>
<path d="M224.153 31.5299L215.906 78.9709H204.714L212.993 31.5299H224.153Z" fill="#AD2462"/>
<path d="M234.584 31.5299L252.223 31.5625C255.125 31.6059 257.798 32.1272 260.241 33.1265C262.685 34.1257 264.605 35.6571 266.001 37.7207C267.397 39.7625 267.986 42.3801 267.768 45.5732C267.572 48.2016 266.983 50.4172 266.001 52.2202C265.019 54.0014 263.688 55.5219 262.008 56.7818C260.328 58.0417 258.354 59.1604 256.085 60.1379L252.027 62.2232H236.188L237.693 53.3931L248.46 53.4583C249.9 53.4366 251.176 53.1542 252.289 52.6112C253.423 52.0681 254.351 51.297 255.071 50.2978C255.79 49.2985 256.249 48.0821 256.445 46.6484C256.62 45.4755 256.576 44.4328 256.314 43.5205C256.052 42.5864 255.551 41.8479 254.809 41.3048C254.067 40.7618 253.085 40.4577 251.863 40.3925L244.271 40.3599L237.53 78.9709H226.338L234.584 31.5299ZM251.896 78.9709L245.318 57.9874L256.674 57.9222L263.841 78.417V78.9709H251.896Z" fill="#AD2462"/>
<path d="M300.518 31.5299L292.272 78.9709H281.047L289.326 31.5299H300.518ZM314.427 31.5299L312.889 40.3599H274.174L275.745 31.5299H314.427Z" fill="#AD2462"/>
<path d="M347.635 31.5299L339.356 78.9709H328.164L336.41 31.5299H347.635ZM362.165 51.2752L360.627 60.0727H339.421L340.959 51.2752H362.165ZM367.401 31.5299L365.863 40.3599H342.825L344.395 31.5299H367.401Z" fill="#AD2462"/>
<path d="M409.806 54.11L409.577 56.0324C409.14 59.1386 408.3 62.1254 407.057 64.9927C405.835 67.8383 404.221 70.3689 402.213 72.5846C400.228 74.8003 397.872 76.5489 395.145 77.8305C392.418 79.0904 389.352 79.6877 385.949 79.6226C382.676 79.5574 379.884 78.8623 377.571 77.5372C375.28 76.2122 373.448 74.4418 372.073 72.2262C370.721 70.0105 369.804 67.5234 369.324 64.7647C368.844 62.006 368.779 59.1604 369.128 56.2279L369.357 54.3055C369.794 51.2209 370.633 48.2667 371.877 45.4429C373.121 42.5973 374.746 40.0667 376.753 37.851C378.76 35.6354 381.127 33.9084 383.854 32.6703C386.582 31.4104 389.636 30.8131 393.018 30.8782C396.268 30.9217 399.039 31.6059 401.33 32.931C403.621 34.256 405.442 36.0264 406.795 38.242C408.169 40.4359 409.097 42.9122 409.577 45.671C410.078 48.4079 410.155 51.2209 409.806 54.11ZM398.188 56.2279L398.45 54.2077C398.603 52.9261 398.701 51.4816 398.745 49.8742C398.788 48.2667 398.646 46.7136 398.319 45.2148C397.992 43.6942 397.359 42.4344 396.421 41.4351C395.505 40.4359 394.152 39.8929 392.363 39.806C390.378 39.7191 388.698 40.121 387.323 41.0116C385.949 41.8805 384.814 43.0534 383.92 44.5305C383.047 45.9859 382.36 47.5716 381.858 49.2877C381.356 51.0037 380.996 52.6546 380.778 54.2403L380.517 56.2605C380.364 57.5421 380.255 58.9974 380.189 60.6266C380.146 62.234 380.277 63.798 380.582 65.3186C380.909 66.8391 381.542 68.1099 382.48 69.1308C383.418 70.13 384.793 70.6622 386.603 70.7274C388.545 70.8143 390.203 70.4124 391.578 69.5218C392.952 68.6095 394.087 67.4147 394.981 65.9376C395.897 64.4605 396.606 62.864 397.108 61.1479C397.632 59.4319 397.992 57.7919 398.188 56.2279Z" fill="#AD2462"/>
<path d="M422.266 31.5299L439.905 31.5625C442.807 31.6059 445.48 32.1272 447.923 33.1265C450.367 34.1257 452.286 35.6571 453.683 37.7207C455.079 39.7625 455.668 42.3801 455.45 45.5732C455.254 48.2016 454.664 50.4172 453.683 52.2202C452.701 54.0014 451.37 55.5219 449.69 56.7818C448.01 58.0417 446.036 59.1604 443.767 60.1379L439.709 62.2232H423.87L425.375 53.3931L436.142 53.4583C437.582 53.4366 438.858 53.1542 439.971 52.6112C441.105 52.0681 442.032 51.297 442.752 50.2978C443.472 49.2985 443.931 48.0821 444.127 46.6484C444.301 45.4755 444.258 44.4328 443.996 43.5205C443.734 42.5864 443.232 41.8479 442.491 41.3048C441.749 40.7618 440.767 40.4577 439.545 40.3925L431.953 40.3599L425.212 78.9709H414.02L422.266 31.5299ZM439.578 78.9709L433 57.9874L444.356 57.9222L451.523 78.417V78.9709H439.578Z" fill="#AD2462"/>
<path d="M135.295 138.559H124.384L125.99 129.768L135.656 129.833C138.386 129.833 140.636 129.16 142.405 127.814C144.196 126.468 145.583 124.721 146.566 122.572C147.571 120.423 148.248 118.154 148.598 115.767L148.827 113.748C149.024 112.315 149.111 110.817 149.089 109.254C149.067 107.67 148.838 106.193 148.401 104.826C147.964 103.458 147.221 102.33 146.173 101.44C145.146 100.55 143.705 100.072 141.848 100.007L130.937 99.9743L132.477 91.1501L142.208 91.1827C145.398 91.2478 148.193 91.8991 150.596 93.1364C152.999 94.352 154.976 96.0126 156.527 98.1183C158.078 100.202 159.17 102.59 159.803 105.282C160.437 107.974 160.579 110.806 160.229 113.78L160 115.832C159.585 119.001 158.689 121.975 157.313 124.753C155.937 127.51 154.168 129.931 152.005 132.015C149.843 134.077 147.342 135.694 144.502 136.866C141.684 138.017 138.615 138.581 135.295 138.559ZM139.129 91.1501L130.839 138.559H119.634L127.89 91.1501H139.129Z" fill="#50115A"/>
<path d="M189.87 101.667L172.308 138.559H159.891L185.185 91.1501H193.114L189.87 101.667ZM192.885 138.559L188.035 100.528L188.298 91.1501H195.768L204.582 138.559H192.885ZM195.44 120.879L193.868 129.703H170.048L171.62 120.879H195.44Z" fill="#50115A"/>
<path d="M237.63 91.1501L229.374 138.559H218.135L226.425 91.1501H237.63ZM251.555 91.1501L250.015 99.9743H211.255L212.827 91.1501H251.555Z" fill="#50115A"/>
<path d="M284.145 129.768L282.605 138.559H257.868L259.408 129.768H284.145ZM270.188 91.1501L261.898 138.559H250.693L258.949 91.1501H270.188ZM284.407 109.971L282.933 118.469H261.374L262.881 109.971H284.407ZM290.96 91.1501L289.42 99.9743H264.585L266.158 91.1501H290.96Z" fill="#50115A"/>
<path d="M290.95 133.61C290.906 131.939 291.474 130.571 292.653 129.507C293.833 128.422 295.242 127.879 296.88 127.879C298.453 127.858 299.818 128.346 300.976 129.345C302.133 130.321 302.734 131.613 302.778 133.219C302.821 134.891 302.253 136.269 301.074 137.355C299.894 138.418 298.485 138.95 296.847 138.95C295.296 138.972 293.931 138.494 292.752 137.517C291.594 136.519 290.993 135.216 290.95 133.61Z" fill="#50115A"/>
<path d="M338.426 122.539L349.402 122.409C349.096 126.012 347.927 129.084 345.896 131.624C343.886 134.142 341.342 136.052 338.262 137.355C335.204 138.657 331.938 139.276 328.465 139.211C325.167 139.146 322.393 138.473 320.143 137.192C317.893 135.889 316.124 134.153 314.835 131.982C313.546 129.79 312.694 127.337 312.279 124.623C311.864 121.888 311.842 119.066 312.214 116.157L312.574 113.585C313.011 110.568 313.819 107.67 314.999 104.891C316.178 102.091 317.718 99.5944 319.619 97.4019C321.541 95.2095 323.823 93.4946 326.466 92.2572C329.11 90.9982 332.102 90.4012 335.444 90.4664C339.004 90.5315 342.03 91.2695 344.52 92.6805C347.032 94.0915 348.976 96.0669 350.352 98.6067C351.75 101.146 352.536 104.142 352.711 107.594L341.538 107.561C341.604 105.89 341.44 104.457 341.047 103.263C340.654 102.069 339.955 101.146 338.95 100.495C337.967 99.8223 336.58 99.4533 334.789 99.3882C332.845 99.323 331.217 99.7246 329.907 100.593C328.618 101.44 327.57 102.579 326.761 104.012C325.953 105.445 325.331 106.997 324.894 108.668C324.479 110.34 324.162 111.957 323.944 113.52L323.616 116.19C323.463 117.471 323.321 118.914 323.19 120.52C323.059 122.105 323.114 123.636 323.354 125.112C323.594 126.566 324.151 127.782 325.025 128.758C325.899 129.735 327.264 130.256 329.12 130.321C330.868 130.365 332.386 130.094 333.675 129.507C334.964 128.9 336.001 128.01 336.787 126.837C337.596 125.643 338.142 124.211 338.426 122.539Z" fill="#50115A"/>
<path d="M398.44 113.715L398.21 115.636C397.774 118.74 396.933 121.725 395.688 124.591C394.464 127.434 392.848 129.963 390.838 132.177C388.851 134.392 386.492 136.139 383.761 137.42C381.031 138.679 377.962 139.276 374.554 139.211C371.278 139.146 368.482 138.451 366.166 137.127C363.873 135.803 362.038 134.033 360.662 131.819C359.308 129.605 358.39 127.12 357.91 124.363C357.429 121.606 357.364 118.762 357.713 115.832L357.943 113.911C358.379 110.828 359.22 107.876 360.465 105.054C361.71 102.21 363.338 99.6812 365.347 97.467C367.357 95.2529 369.727 93.5271 372.457 92.2898C375.188 91.0307 378.246 90.4338 381.631 90.4989C384.886 90.5423 387.66 91.2261 389.954 92.5503C392.247 93.8744 394.071 95.6436 395.425 97.8578C396.801 100.05 397.73 102.525 398.21 105.282C398.713 108.017 398.789 110.828 398.44 113.715ZM386.808 115.832L387.07 113.813C387.223 112.532 387.322 111.089 387.365 109.482C387.409 107.876 387.267 106.324 386.939 104.826C386.612 103.306 385.978 102.047 385.039 101.049C384.122 100.05 382.767 99.5076 380.976 99.4207C378.988 99.3339 377.306 99.7355 375.93 100.625C374.554 101.494 373.418 102.666 372.523 104.142C371.649 105.597 370.961 107.181 370.459 108.896C369.956 110.611 369.596 112.261 369.377 113.845L369.115 115.864C368.962 117.145 368.853 118.599 368.788 120.227C368.744 121.834 368.875 123.397 369.181 124.916C369.508 126.436 370.142 127.706 371.081 128.726C372.02 129.724 373.397 130.256 375.21 130.321C377.154 130.408 378.814 130.007 380.19 129.117C381.566 128.205 382.702 127.011 383.597 125.535C384.515 124.059 385.225 122.463 385.727 120.748C386.251 119.034 386.612 117.395 386.808 115.832Z" fill="#50115A"/>
<path d="M416.646 91.1501H425.427L429.981 124.037L446.036 91.1501H455.538L431.554 138.559H424.116L416.646 91.1501ZM410.912 91.1501H420.381L415.729 127.977L413.861 138.559H402.655L410.912 91.1501ZM451.377 91.1501H460.911L452.654 138.559H441.383L443.415 127.033L451.377 91.1501Z" fill="#50115A"/>
<path fill-rule="evenodd" clip-rule="evenodd" d="M25.7013 92.276L75.8498 62.4769L69.5183 107.612L53.6275 102.18L52.4757 112.625L48.9306 99.8862L64.3524 77.0626L45.482 98.5589L25.7013 92.276Z" fill="#50115A"/>
<defs>
<linearGradient id="paint0_linear_6180_10530" x1="89.2227" y1="162.774" x2="141.217" y2="117.404" gradientUnits="userSpaceOnUse">
<stop stop-color="#601A6E"/>
<stop offset="1" stop-color="#A42263"/>
</linearGradient>
</defs>
</svg>
