<svg width="48" height="48" viewBox="0 0 48 48" fill="none" xmlns="http://www.w3.org/2000/svg">
<path d="M30.4901 12.3574H17.5107V35.6817H30.4901V12.3574Z" fill="#FF5F00"/>
<path d="M18.3347 24.0211C18.3327 21.7748 18.8417 19.5575 19.8233 17.537C20.8049 15.5165 22.2332 13.7458 24.0003 12.3589C21.812 10.6389 19.184 9.56925 16.4166 9.27222C13.6491 8.97519 10.854 9.46277 8.35054 10.6792C5.84712 11.8957 3.73644 13.7919 2.25976 16.1512C0.783091 18.5106 0 21.2377 0 24.0211C0 26.8044 0.783091 29.5316 2.25976 31.8909C3.73644 34.2502 5.84712 36.1465 8.35054 37.3629C10.854 38.5794 13.6491 39.067 16.4166 38.7699C19.184 38.4729 21.812 37.4033 24.0003 35.6832C22.2333 34.2964 20.8049 32.5257 19.8233 30.5052C18.8417 28.4847 18.3327 26.2674 18.3347 24.0211Z" fill="#EB001B"/>
<path d="M47.9995 24.0211C47.9997 26.8044 47.2167 29.5315 45.7401 31.8908C44.2635 34.2502 42.1529 36.1464 39.6495 37.3629C37.1461 38.5794 34.351 39.067 31.5836 38.7699C28.8162 38.4729 26.1882 37.4032 24 35.6832C25.7655 34.295 27.1928 32.524 28.1742 30.5038C29.1556 28.4836 29.6655 26.267 29.6655 24.0211C29.6655 21.7751 29.1556 19.5585 28.1742 17.5383C27.1928 15.5182 25.7655 13.7472 24 12.3589C26.1882 10.6389 28.8162 9.56924 31.5836 9.27221C34.351 8.97519 37.1461 9.46278 39.6495 10.6792C42.1529 11.8957 44.2635 13.792 45.7401 16.1513C47.2167 18.5106 47.9997 21.2378 47.9995 24.0211Z" fill="#F79E1B"/>
<path d="M46.5849 33.2125V32.735H46.7775V32.6377H46.2871V32.735H46.4797V33.2125H46.5849ZM47.537 33.2125V32.6367H47.3866L47.2138 33.0327L47.0408 32.6367H46.8904V33.2125H46.9966V32.7782L47.1587 33.1526H47.2688L47.4309 32.7772V33.2125H47.537Z" fill="#F79E1B"/>
</svg>
