<svg width="48" height="48" viewBox="0 0 48 48" fill="none" xmlns="http://www.w3.org/2000/svg">
<path d="M41.2501 27.0094L14.6068 35.3707L6.84277 14.2352L34.8133 12.6758L41.2501 27.0094Z" fill="#02797E"/>
<path d="M21.1099 22.762C21.1099 23.2929 20.9772 23.7574 20.7449 24.1887C20.5127 24.5869 20.1809 24.9518 19.7495 25.2173C19.3182 25.4827 18.7873 25.6818 18.1901 25.8145C17.5929 25.9472 16.9293 26.0136 16.1661 26.0136H15.6353V28.7343H12.1846V19.6763H16.2325C17.7588 19.6763 18.9532 19.9417 19.8159 20.4394C20.6786 20.9371 21.1099 21.7334 21.1099 22.762ZM17.7919 22.7952C17.7919 21.9988 17.1947 21.6007 16.0334 21.6007H15.6021V24.0228H16.0002C16.5643 24.0228 17.0288 23.9233 17.3274 23.7242C17.626 23.5583 17.7919 23.2265 17.7919 22.7952ZM29.6703 28.7343C29.1394 28.8339 28.5422 28.9002 27.8454 28.9002C26.8832 28.9002 26.0205 28.8007 25.2906 28.5684C24.5274 28.3362 23.897 28.0375 23.3661 27.6394C22.8353 27.2412 22.4371 26.7435 22.1717 26.1795C21.9062 25.5823 21.7735 24.9518 21.7735 24.2551C21.7735 23.5583 21.9062 22.9279 22.2048 22.3306C22.5079 21.7544 22.9257 21.2463 23.4325 20.8376C23.9634 20.4394 24.5938 20.1076 25.3237 19.8753C26.0537 19.6431 26.85 19.5435 27.7127 19.5435C28.3763 19.5435 29.0067 19.5767 29.5707 19.6763C30.1348 19.809 30.1348 19.809 30.5661 19.9749V22.397C30.2343 22.1979 29.8362 22.032 29.4048 21.9325C28.9735 21.7998 28.509 21.7334 28.0445 21.7334C27.2482 21.7334 26.6177 21.9657 26.12 22.3638C25.6223 22.7952 25.3901 23.3924 25.3901 24.2219C25.3901 24.62 25.4564 24.985 25.6223 25.3168C25.7882 25.6154 25.9873 25.8809 26.2528 26.0799C26.5182 26.279 26.8168 26.4449 27.1818 26.5445C27.5468 26.644 27.9117 26.7104 28.3099 26.7104C28.7081 26.7104 29.1394 26.6772 29.5376 26.5776C29.9357 26.4781 30.367 26.3786 30.7984 26.1795V28.4689L29.6703 28.7343ZM32.2251 19.6763H35.709V28.7675H32.2251V19.6763ZM36.074 16.8228C36.074 17.42 35.8749 17.9177 35.4767 18.2495C35.0786 18.5813 34.5809 18.7804 33.9836 18.7804C33.3864 18.7804 32.8887 18.6145 32.4905 18.2495C32.0924 17.9177 31.8933 17.42 31.8933 16.8228C31.8933 16.1924 32.0924 15.7279 32.4905 15.3629C32.8887 14.9979 33.3864 14.832 33.9836 14.832C34.5809 14.832 35.0786 14.9979 35.4767 15.3629C35.8749 15.6947 36.074 16.1924 36.074 16.8228Z" fill="white"/>
</svg>
