<svg width="178" height="26" viewBox="0 0 178 26" fill="none" xmlns="http://www.w3.org/2000/svg">
<rect width="177.308" height="26" rx="13" fill="black" fill-opacity="0.4"/>
<path d="M11.2764 18V7.81445H15.0156C15.7357 7.81445 16.3327 7.93294 16.8066 8.16992C17.2806 8.4069 17.6338 8.72819 17.8662 9.13379C18.1032 9.53483 18.2217 9.986 18.2217 10.4873C18.2217 10.9111 18.1419 11.2689 17.9824 11.5605C17.8275 11.8522 17.6201 12.0846 17.3604 12.2578C17.1006 12.431 16.8135 12.5586 16.499 12.6406V12.7363C16.8408 12.7546 17.1735 12.8639 17.4971 13.0645C17.8206 13.265 18.0872 13.5498 18.2969 13.9189C18.5111 14.2835 18.6182 14.7301 18.6182 15.2588C18.6182 15.7783 18.4951 16.2454 18.249 16.6602C18.0075 17.0703 17.6338 17.3962 17.1279 17.6377C16.6221 17.8792 15.9727 18 15.1797 18H11.2764ZM12.8145 16.6875H15.0293C15.7676 16.6875 16.2962 16.5439 16.6152 16.2568C16.9342 15.9697 17.0938 15.612 17.0938 15.1836C17.0938 14.86 17.0117 14.5661 16.8477 14.3018C16.6882 14.0329 16.458 13.8187 16.1572 13.6592C15.8564 13.4997 15.501 13.4199 15.0908 13.4199H12.8145V16.6875ZM12.8145 12.2236H14.8789C15.2207 12.2236 15.5306 12.1576 15.8086 12.0254C16.0866 11.8932 16.3053 11.7064 16.4648 11.4648C16.6289 11.2188 16.7109 10.9339 16.7109 10.6104C16.7109 10.1911 16.5628 9.84017 16.2666 9.55762C15.9749 9.27051 15.526 9.12695 14.9199 9.12695H12.8145V12.2236ZM21.9541 18.1641C21.471 18.1641 21.0335 18.0752 20.6416 17.8975C20.2497 17.7152 19.9398 17.4508 19.7119 17.1045C19.484 16.7581 19.3701 16.3366 19.3701 15.8398C19.3701 15.4069 19.4521 15.0537 19.6162 14.7803C19.7848 14.5023 20.0104 14.2812 20.293 14.1172C20.5755 13.9531 20.89 13.8301 21.2363 13.748C21.5827 13.666 21.9382 13.6022 22.3027 13.5566C22.763 13.5065 23.1344 13.4632 23.417 13.4268C23.6995 13.3903 23.9046 13.3333 24.0322 13.2559C24.1644 13.1738 24.2305 13.0439 24.2305 12.8662V12.832C24.2305 12.3991 24.1074 12.0641 23.8613 11.8271C23.6198 11.5902 23.2598 11.4717 22.7812 11.4717C22.2845 11.4717 21.8903 11.5811 21.5986 11.7998C21.3115 12.014 21.1133 12.2578 21.0039 12.5312L19.6025 12.21C19.7712 11.7451 20.015 11.3714 20.334 11.0889C20.6576 10.8018 21.0267 10.5921 21.4414 10.46C21.8607 10.3278 22.2982 10.2617 22.7539 10.2617C23.0592 10.2617 23.3828 10.2982 23.7246 10.3711C24.0664 10.4395 24.3877 10.5693 24.6885 10.7607C24.9938 10.9476 25.2422 11.2165 25.4336 11.5674C25.625 11.9183 25.7207 12.3717 25.7207 12.9277V18H24.2646V16.9541H24.21C24.1188 17.141 23.9753 17.3278 23.7793 17.5146C23.5879 17.7015 23.3418 17.8564 23.041 17.9795C22.7402 18.1025 22.3779 18.1641 21.9541 18.1641ZM22.2754 16.9746C22.6901 16.9746 23.0433 16.8949 23.335 16.7354C23.6266 16.5713 23.8499 16.3571 24.0049 16.0928C24.1598 15.8285 24.2373 15.5482 24.2373 15.252V14.2607C24.1826 14.3109 24.0801 14.3587 23.9297 14.4043C23.7793 14.4499 23.6084 14.4886 23.417 14.5205C23.2256 14.5524 23.0387 14.582 22.8564 14.6094C22.6742 14.6322 22.5215 14.6504 22.3984 14.6641C22.1113 14.7051 21.8493 14.7689 21.6123 14.8555C21.3753 14.9375 21.1839 15.0605 21.0381 15.2246C20.8968 15.3841 20.8262 15.596 20.8262 15.8604C20.8262 16.2295 20.9629 16.5075 21.2363 16.6943C21.5098 16.8812 21.8561 16.9746 22.2754 16.9746ZM30.3555 18.1572C29.6217 18.1572 28.9883 17.9886 28.4551 17.6514C27.9219 17.3141 27.5117 16.8493 27.2246 16.2568C26.9375 15.6644 26.7939 14.9854 26.7939 14.2197C26.7939 13.4404 26.9398 12.7546 27.2314 12.1621C27.5277 11.5651 27.9401 11.1003 28.4688 10.7676C29.002 10.4303 29.6263 10.2617 30.3418 10.2617C30.9251 10.2617 31.4424 10.3688 31.8936 10.583C32.3493 10.7926 32.7161 11.0911 32.9941 11.4785C33.2767 11.8659 33.443 12.3171 33.4932 12.832H32.0439C31.9938 12.5905 31.8958 12.3695 31.75 12.1689C31.6087 11.9684 31.4219 11.8089 31.1895 11.6904C30.957 11.5719 30.6813 11.5127 30.3623 11.5127C29.9476 11.5127 29.5853 11.6221 29.2754 11.8408C28.9701 12.055 28.7308 12.3626 28.5576 12.7637C28.3844 13.1647 28.2979 13.6387 28.2979 14.1855C28.2979 14.737 28.3822 15.2178 28.5508 15.6279C28.7194 16.0381 28.9587 16.3548 29.2686 16.5781C29.583 16.7969 29.9476 16.9062 30.3623 16.9062C30.7907 16.9062 31.1553 16.7878 31.4561 16.5508C31.7614 16.3138 31.9574 15.9902 32.0439 15.5801H33.4932C33.443 16.0768 33.2835 16.5189 33.0146 16.9062C32.7458 17.2936 32.3857 17.599 31.9346 17.8223C31.4834 18.0456 30.957 18.1572 30.3555 18.1572ZM35.9131 15.4092L35.8926 13.5977H36.1592L39.2012 10.3574H40.9785L37.5127 14.0488H37.2666L35.9131 15.4092ZM34.5459 18V7.81445H36.0225V18H34.5459ZM39.3584 18L36.624 14.377L37.6494 13.3311L41.1904 18H39.3584ZM48.4229 10.3574V11.5537H44.2529V10.3574H48.4229ZM45.3672 8.53906H46.8506V15.7578C46.8506 16.1087 46.9235 16.3662 47.0693 16.5303C47.2152 16.6898 47.4499 16.7695 47.7734 16.7695C47.8509 16.7695 47.9329 16.765 48.0195 16.7559C48.1107 16.7467 48.2018 16.7331 48.293 16.7148L48.5732 17.9453C48.4229 17.9954 48.2588 18.0342 48.0811 18.0615C47.9033 18.0889 47.7256 18.1025 47.5479 18.1025C46.887 18.1025 46.3584 17.918 45.9619 17.5488C45.5654 17.1751 45.3672 16.6784 45.3672 16.0586V8.53906ZM52.6133 18.1572C51.8978 18.1572 51.2712 17.9932 50.7334 17.665C50.2002 17.3369 49.7855 16.8766 49.4893 16.2842C49.1976 15.6917 49.0518 15.0036 49.0518 14.2197C49.0518 13.4268 49.1976 12.734 49.4893 12.1416C49.7855 11.5446 50.2002 11.082 50.7334 10.7539C51.2712 10.4258 51.8978 10.2617 52.6133 10.2617C53.3333 10.2617 53.96 10.4258 54.4932 10.7539C55.0264 11.082 55.4411 11.5446 55.7373 12.1416C56.0335 12.734 56.1816 13.4268 56.1816 14.2197C56.1816 15.0036 56.0335 15.6917 55.7373 16.2842C55.4411 16.8766 55.0264 17.3369 54.4932 17.665C53.96 17.9932 53.3333 18.1572 52.6133 18.1572ZM52.6133 16.9062C53.0827 16.9062 53.4701 16.7832 53.7754 16.5371C54.0807 16.291 54.3063 15.9652 54.4521 15.5596C54.6025 15.1494 54.6777 14.7028 54.6777 14.2197C54.6777 13.7275 54.6025 13.2764 54.4521 12.8662C54.3063 12.4561 54.0807 12.1279 53.7754 11.8818C53.4701 11.6357 53.0827 11.5127 52.6133 11.5127C52.1484 11.5127 51.7633 11.6357 51.458 11.8818C51.1572 12.1279 50.9316 12.4561 50.7812 12.8662C50.6309 13.2764 50.5557 13.7275 50.5557 14.2197C50.5557 14.7028 50.6309 15.1494 50.7812 15.5596C50.9316 15.9652 51.1572 16.291 51.458 16.5371C51.7633 16.7832 52.1484 16.9062 52.6133 16.9062Z" fill="white"/>
<path d="M107.781 14.465C107.781 15.3387 107.827 15.9276 107.92 16.2319C108.012 16.5362 108.227 16.7325 108.565 16.8209C108.913 16.8994 109.585 16.9387 110.579 16.9387V18.7791C109.062 18.7791 107.981 18.6614 107.336 18.4258C106.69 18.1902 106.28 17.7975 106.106 17.2479C105.942 16.6883 105.86 15.7607 105.86 14.465V12.3301H104.169V10.4454H105.86V7.58896H107.781V10.4454H110.563V12.3301H107.781V14.465Z" fill="white"/>
<path d="M113.324 13.1693C113.447 12.4331 113.651 11.8687 113.938 11.4761C114.225 11.0834 114.594 10.8135 115.045 10.6663C115.506 10.519 116.1 10.4454 116.828 10.4454V12.492C116.52 12.4331 116.234 12.4037 115.967 12.4037C115.158 12.4037 114.533 12.6491 114.092 13.1399C113.662 13.6209 113.447 14.2933 113.447 15.1571V18.7791H111.495V10.4307H113.447L113.016 13.1693H113.324Z" fill="white"/>
<path d="M121.285 10.3571C122.73 10.3571 123.805 10.681 124.512 11.3288C125.219 11.9669 125.573 12.9337 125.573 14.2294V18.7791H123.682L123.99 15.9521H123.759C123.39 17.9742 122.284 18.9853 120.44 18.9853C119.384 18.9853 118.595 18.7693 118.073 18.3374C117.55 17.9055 117.289 17.292 117.289 16.4969C117.289 15.6429 117.642 14.9755 118.349 14.4945C119.056 14.0135 120.076 13.773 121.408 13.773H123.652C123.549 13.2528 123.303 12.8699 122.914 12.6245C122.535 12.3693 121.992 12.2417 121.285 12.2417C120.793 12.2417 120.378 12.3399 120.04 12.5362C119.702 12.7227 119.379 13.0172 119.072 13.4196L117.504 12.4037C117.996 11.7264 118.544 11.216 119.148 10.8724C119.763 10.5288 120.475 10.3571 121.285 10.3571ZM120.732 17.0859C121.592 17.0859 122.253 16.9092 122.714 16.5558C123.175 16.2025 123.467 15.6822 123.59 14.9951H121.408C120.67 14.9951 120.127 15.0883 119.779 15.2748C119.43 15.4515 119.256 15.7264 119.256 16.0994C119.256 16.3939 119.379 16.6344 119.625 16.8209C119.871 16.9975 120.24 17.0859 120.732 17.0859Z" fill="white"/>
<path d="M132.104 10.2245C133.323 10.2245 134.235 10.5877 134.84 11.3141C135.455 12.0405 135.762 13.2135 135.762 14.8331V18.7791H133.856V14.8331C133.856 13.9006 133.672 13.2135 133.303 12.7718C132.934 12.3301 132.35 12.1092 131.551 12.1092C130.741 12.1092 130.101 12.3742 129.63 12.9043C129.158 13.4245 128.923 14.1755 128.923 15.1571V18.7791H126.955V10.4454H128.923L128.492 13.1693H128.784C128.907 12.384 129.112 11.7804 129.399 11.3583C129.686 10.9264 130.045 10.6319 130.475 10.4748C130.916 10.308 131.459 10.2245 132.104 10.2245Z" fill="white"/>
<path d="M138.526 15.746C138.772 16.2074 139.08 16.5607 139.448 16.8061C139.828 17.0417 140.309 17.1595 140.893 17.1595C142.143 17.1595 142.768 16.8994 142.768 16.3791C142.768 16.1239 142.645 15.9276 142.399 15.7902C142.154 15.6528 141.682 15.5202 140.985 15.3926L140.432 15.2896C139.264 15.0834 138.419 14.7693 137.896 14.3472C137.374 13.9153 137.112 13.346 137.112 12.6393C137.112 12.227 137.235 11.8491 137.481 11.5055C137.737 11.162 138.127 10.8871 138.649 10.681C139.182 10.465 139.838 10.3571 140.617 10.3571C141.621 10.3571 142.42 10.5534 143.014 10.946C143.609 11.3288 144.1 11.908 144.49 12.6834L142.845 13.4344C142.548 12.9632 142.23 12.6344 141.892 12.4479C141.554 12.2515 141.129 12.1534 140.617 12.1534C140.043 12.1534 139.628 12.2221 139.372 12.3595C139.126 12.4871 139.003 12.6589 139.003 12.8748C139.003 13.1006 139.1 13.2773 139.295 13.4049C139.5 13.5325 139.879 13.6552 140.432 13.773L140.985 13.8761C141.949 14.0429 142.691 14.2491 143.214 14.4945C143.747 14.7399 144.116 15.0245 144.321 15.3485C144.526 15.6626 144.628 16.0454 144.628 16.4969C144.628 16.9092 144.495 17.3067 144.228 17.6896C143.972 18.0626 143.562 18.3669 142.999 18.6025C142.435 18.838 141.733 18.9558 140.893 18.9558C139.858 18.9558 139.013 18.7693 138.357 18.3963C137.712 18.0135 137.153 17.3951 136.682 16.5411L138.526 15.746Z" fill="white"/>
<path d="M151.992 8.61963C151.141 8.60982 150.537 8.64417 150.178 8.7227C149.83 8.79141 149.589 8.94847 149.456 9.19387C149.333 9.43926 149.261 9.85644 149.241 10.4454H151.992V12.3301H149.225V18.7791H147.304V12.3301H145.598V10.4454H147.304C147.325 9.53252 147.442 8.8454 147.658 8.38405C147.873 7.91288 148.308 7.56442 148.964 7.33865C149.62 7.11288 150.629 7 151.992 7V8.61963Z" fill="white"/>
<path d="M154.26 15.2454C154.373 15.8344 154.65 16.3055 155.09 16.6589C155.541 17.0025 156.104 17.1742 156.781 17.1742C157.867 17.1742 158.728 16.7718 159.363 15.9669L160.669 16.8209C160.27 17.5472 159.727 18.092 159.04 18.4552C158.354 18.8184 157.6 19 156.781 19C155.971 19 155.223 18.8086 154.537 18.4258C153.85 18.0331 153.302 17.508 152.892 16.8503C152.493 16.1828 152.293 15.4564 152.293 14.6712C152.293 13.8859 152.493 13.1644 152.892 12.5067C153.302 11.8491 153.85 11.3288 154.537 10.946C155.223 10.5534 155.971 10.3571 156.781 10.3571C157.641 10.3571 158.4 10.5632 159.055 10.9755C159.711 11.3877 160.213 11.9669 160.562 12.7129C160.91 13.4491 161.069 14.2933 161.038 15.2454H154.26ZM156.781 12.1534C156.145 12.1534 155.602 12.3301 155.152 12.6834C154.711 13.027 154.419 13.4687 154.276 14.0086H159.194C159.071 13.4294 158.784 12.9779 158.333 12.654C157.892 12.3202 157.375 12.1534 156.781 12.1534Z" fill="white"/>
<path d="M163.803 13.1693C163.926 12.4331 164.131 11.8687 164.418 11.4761C164.705 11.0834 165.074 10.8135 165.525 10.6663C165.986 10.519 166.58 10.4454 167.308 10.4454V12.492C167 12.4331 166.713 12.4037 166.447 12.4037C165.638 12.4037 165.012 12.6491 164.572 13.1399C164.142 13.6209 163.926 14.2933 163.926 15.1571V18.7791H161.974V10.4307H163.926L163.496 13.1693H163.803Z" fill="white"/>
<path d="M74.4408 10.3571C75.1581 10.3571 75.8036 10.5534 76.3774 10.946C76.9614 11.3387 77.4225 11.8785 77.7606 12.5656C78.0988 13.2429 78.2678 14.0037 78.2678 14.8479C78.2678 15.584 78.0988 16.2712 77.7606 16.9092C77.4225 17.5472 76.9614 18.0577 76.3774 18.4405C75.7933 18.8135 75.1478 19 74.4408 19C72.5452 19 71.4233 18.0135 71.0749 16.0405H70.8136L70.9673 18.7791H69V7H70.9673V10.4454L70.8136 13.1546H71.1364C71.3413 12.2613 71.7307 11.5742 72.3044 11.0933C72.8885 10.6025 73.6006 10.3571 74.4408 10.3571ZM73.7646 17.1301C74.2564 17.1301 74.697 17.027 75.0863 16.8209C75.4757 16.6147 75.778 16.335 75.9931 15.9816C76.2186 15.6184 76.3313 15.211 76.3313 14.7595C76.3313 14.0429 76.0905 13.4589 75.6089 13.0074C75.1273 12.546 74.5125 12.3153 73.7646 12.3153C73.283 12.3153 72.8475 12.4233 72.4581 12.6393C72.0688 12.8454 71.7614 13.135 71.536 13.508C71.3106 13.8712 71.1978 14.2736 71.1978 14.7153C71.1978 15.1178 71.3106 15.5055 71.536 15.8785C71.7716 16.2515 72.0842 16.5558 72.4735 16.7914C72.8731 17.0172 73.3035 17.1301 73.7646 17.1301Z" fill="url(#paint0_linear_5746_6654)"/>
<path d="M81.1592 15.2454C81.2719 15.8344 81.5486 16.3055 81.9892 16.6589C82.44 17.0025 83.0036 17.1742 83.6798 17.1742C84.7659 17.1742 85.6266 16.7718 86.2619 15.9669L87.5683 16.8209C87.1687 17.5472 86.6256 18.092 85.9391 18.4552C85.2526 18.8184 84.4995 19 83.6798 19C82.8704 19 82.1224 18.8086 81.4359 18.4258C80.7494 18.0331 80.2012 17.508 79.7913 16.8503C79.3917 16.1828 79.1919 15.4564 79.1919 14.6712C79.1919 13.8859 79.3917 13.1644 79.7913 12.5067C80.2012 11.8491 80.7494 11.3288 81.4359 10.946C82.1224 10.5534 82.8704 10.3571 83.6798 10.3571C84.5405 10.3571 85.2987 10.5632 85.9545 10.9755C86.6103 11.3877 87.1123 11.9669 87.4607 12.7129C87.8091 13.4491 87.9679 14.2933 87.9372 15.2454H81.1592ZM83.6798 12.1534C83.0445 12.1534 82.5015 12.3301 82.0506 12.6834C81.6101 13.027 81.318 13.4687 81.1746 14.0086H86.0928C85.9699 13.4294 85.683 12.9779 85.2321 12.654C84.7915 12.3202 84.2741 12.1534 83.6798 12.1534Z" fill="url(#paint1_linear_5746_6654)"/>
<path d="M91.87 14.465C91.87 15.3387 91.9161 15.9276 92.0083 16.2319C92.1005 16.5362 92.3157 16.7325 92.6538 16.8209C93.0022 16.8994 93.6733 16.9387 94.6672 16.9387V18.7791C93.1508 18.7791 92.0698 18.6614 91.4243 18.4258C90.7787 18.1902 90.3689 17.7975 90.1947 17.2479C90.0308 16.6883 89.9488 15.7607 89.9488 14.465V12.3301H88.2581V10.4454H89.9488V7.58896H91.87V10.4454H94.6519V12.3301H91.87V14.465Z" fill="url(#paint2_linear_5746_6654)"/>
<path d="M98.964 10.3571C100.409 10.3571 101.485 10.681 102.192 11.3288C102.899 11.9669 103.252 12.9337 103.252 14.2294V18.7791H101.362L101.669 15.9521H101.438C101.07 17.9742 99.963 18.9853 98.1186 18.9853C97.0633 18.9853 96.2743 18.7693 95.7517 18.3374C95.2292 17.9055 94.9679 17.292 94.9679 16.4969C94.9679 15.6429 95.3214 14.9755 96.0284 14.4945C96.7354 14.0135 97.7549 13.773 99.0869 13.773H101.331C101.228 13.2528 100.983 12.8699 100.593 12.6245C100.214 12.3693 99.671 12.2417 98.964 12.2417C98.4721 12.2417 98.0572 12.3399 97.719 12.5362C97.3809 12.7227 97.0581 13.0172 96.7508 13.4196L95.1831 12.4037C95.6749 11.7264 96.2231 11.216 96.8276 10.8724C97.4424 10.5288 98.1545 10.3571 98.964 10.3571ZM98.4107 17.0859C99.2714 17.0859 99.9323 16.9092 100.393 16.5558C100.854 16.2025 101.146 15.6822 101.269 14.9951H99.0869C98.3492 14.9951 97.8061 15.0883 97.4578 15.2748C97.1094 15.4515 96.9352 15.7264 96.9352 16.0994C96.9352 16.3939 97.0581 16.6344 97.3041 16.8209C97.55 16.9975 97.9188 17.0859 98.4107 17.0859Z" fill="url(#paint3_linear_5746_6654)"/>
<defs>
<linearGradient id="paint0_linear_5746_6654" x1="69" y1="7" x2="76.489" y2="28.3763" gradientUnits="userSpaceOnUse">
<stop stop-color="#3B95FF"/>
<stop offset="0.508333" stop-color="#18B6D6"/>
<stop offset="1" stop-color="#1BCF58"/>
</linearGradient>
<linearGradient id="paint1_linear_5746_6654" x1="69" y1="7" x2="76.489" y2="28.3763" gradientUnits="userSpaceOnUse">
<stop stop-color="#3B95FF"/>
<stop offset="0.508333" stop-color="#18B6D6"/>
<stop offset="1" stop-color="#1BCF58"/>
</linearGradient>
<linearGradient id="paint2_linear_5746_6654" x1="69" y1="7" x2="76.489" y2="28.3763" gradientUnits="userSpaceOnUse">
<stop stop-color="#3B95FF"/>
<stop offset="0.508333" stop-color="#18B6D6"/>
<stop offset="1" stop-color="#1BCF58"/>
</linearGradient>
<linearGradient id="paint3_linear_5746_6654" x1="69" y1="7" x2="76.489" y2="28.3763" gradientUnits="userSpaceOnUse">
<stop stop-color="#3B95FF"/>
<stop offset="0.508333" stop-color="#18B6D6"/>
<stop offset="1" stop-color="#1BCF58"/>
</linearGradient>
</defs>
</svg>
