<svg width="48" height="48" viewBox="0 0 48 48" fill="none" xmlns="http://www.w3.org/2000/svg">
<path d="M24.1235 38.8096C31.3661 38.8096 37.2373 32.9383 37.2373 25.6958C37.2373 18.4533 31.3661 12.582 24.1235 12.582C16.881 12.582 11.0098 18.4533 11.0098 25.6958C11.0098 32.9383 16.881 38.8096 24.1235 38.8096Z" fill="#34AADF"/>
<path d="M16.6309 25.4084C16.6309 25.4084 23.1268 22.6448 25.3797 21.6717C26.2433 21.2825 29.1721 20.0369 29.1721 20.0369C29.1721 20.0369 30.5239 19.492 30.4112 20.8154C30.3736 21.3604 30.0733 23.2676 29.7729 25.3306C29.3223 28.2499 28.8342 31.4416 28.8342 31.4416C28.8342 31.4416 28.7591 32.3369 28.1208 32.4926C27.4824 32.6483 26.4311 31.9477 26.2433 31.7919C26.0931 31.6752 23.4272 29.9236 22.4509 29.0673C22.1881 28.8337 21.8877 28.3667 22.4885 27.8217C23.8402 26.5372 25.4548 24.9414 26.4311 23.9293C26.8817 23.4622 27.3322 22.3724 25.4548 23.6958C22.7889 25.603 20.1605 27.3935 20.1605 27.3935C20.1605 27.3935 19.5597 27.7828 18.4333 27.4324C17.3068 27.0822 15.9926 26.6151 15.9926 26.6151C15.9926 26.6151 15.0915 26.0312 16.6309 25.4084Z" fill="white"/>
</svg>
