<svg width="48" height="48" viewBox="0 0 48 48" fill="none" xmlns="http://www.w3.org/2000/svg">
<path fill-rule="evenodd" clip-rule="evenodd" d="M29.1224 20.671C30.73 21.8138 32.6552 22.4244 34.6277 22.417V18.5079C34.2399 18.509 33.8532 18.4675 33.4745 18.3842V21.4984C31.4976 21.5019 29.5696 20.8843 27.9627 19.7328V27.7725C27.9578 29.0917 27.596 30.3851 26.9157 31.5154C26.2353 32.6456 25.2618 33.5708 24.0983 34.1926C22.9348 34.8144 21.6247 35.1098 20.3069 35.0474C18.9891 34.985 17.7128 34.5671 16.6133 33.8381C17.6303 34.8671 18.9299 35.5712 20.3473 35.8612C21.7648 36.1512 23.2364 36.014 24.5758 35.4671C25.9153 34.9201 27.0623 33.988 27.8717 32.7887C28.681 31.5895 29.1163 30.177 29.1224 28.7302V20.671ZM30.5492 16.6837C29.7317 15.7976 29.23 14.666 29.1224 13.4652V12.957H28.0278C28.1631 13.7203 28.4575 14.4466 28.8919 15.0887C29.3263 15.7307 29.891 16.2742 30.5492 16.6837ZM19.1477 30.7434C18.7683 30.2473 18.5358 29.6547 18.4767 29.033C18.4175 28.4113 18.5341 27.7854 18.8131 27.2267C19.0921 26.668 19.5224 26.1988 20.0549 25.8726C20.5875 25.5464 21.2009 25.3762 21.8254 25.3814C22.1702 25.3813 22.513 25.4341 22.8418 25.5378V21.4984C22.4574 21.4475 22.0697 21.4257 21.6821 21.4332V24.5735C20.8814 24.3205 20.0149 24.378 19.2547 24.7348C18.4946 25.0915 17.8966 25.7213 17.5797 26.4988C17.2627 27.2764 17.2501 28.1448 17.5442 28.9313C17.8384 29.7177 18.4178 30.3647 19.1672 30.7434H19.1477Z" fill="#EE1D52"/>
<path fill-rule="evenodd" clip-rule="evenodd" d="M27.9616 19.7067C29.5685 20.8582 31.4965 21.4758 33.4734 21.4723V18.3581C32.3471 18.1199 31.3239 17.5343 30.5481 16.6837C29.8899 16.2742 29.3252 15.7307 28.8908 15.0887C28.4564 14.4466 28.162 13.7203 28.0267 12.957H25.147V28.7302C25.1443 29.4284 24.9231 30.1082 24.5143 30.6742C24.1056 31.2402 23.5298 31.664 22.8679 31.8861C22.206 32.1081 21.4911 32.1174 20.8237 31.9124C20.1563 31.7075 19.5698 31.2987 19.1466 30.7434C18.4759 30.405 17.9387 29.8505 17.6218 29.1693C17.3049 28.4882 17.2267 27.7201 17.3999 26.9891C17.5731 26.2581 17.9875 25.6067 18.5762 25.1401C19.165 24.6734 19.8938 24.4188 20.6451 24.4172C20.9898 24.4183 21.3323 24.471 21.6614 24.5735V21.4332C20.2395 21.4674 18.8586 21.9159 17.688 22.7238C16.5175 23.5317 15.6083 24.6639 15.0721 25.9812C14.5359 27.2985 14.396 28.7438 14.6696 30.1395C14.9432 31.5352 15.6183 32.8207 16.6122 33.8381C17.7119 34.5723 18.9903 34.9945 20.311 35.0597C21.6317 35.1248 22.9454 34.8305 24.1121 34.208C25.2788 33.5856 26.2548 32.6583 26.9361 31.525C27.6174 30.3917 27.9786 29.0948 27.9811 27.7725L27.9616 19.7067Z" fill="#E3E3E3"/>
<path fill-rule="evenodd" clip-rule="evenodd" d="M33.4736 18.3575V17.517C32.4392 17.5214 31.4248 17.2323 30.5483 16.6831C31.3221 17.5361 32.3461 18.1223 33.4736 18.3575ZM28.0269 12.9564C28.0269 12.8066 27.9813 12.6502 27.9618 12.5004V11.9922H23.9875V27.7719C23.9841 28.6555 23.6302 29.5016 23.0036 30.1245C22.377 30.7475 21.5288 31.0963 20.6452 31.0946C20.125 31.0972 19.6115 30.9767 19.1468 30.7428C19.57 31.2981 20.1565 31.7069 20.8239 31.9118C21.4913 32.1168 22.2062 32.1075 22.8681 31.8855C23.53 31.6634 24.1058 31.2396 24.5145 30.6736C24.9233 30.1076 25.1445 29.4278 25.1472 28.7296V12.9564H28.0269ZM21.6616 21.4261V20.5336C20.0262 20.3114 18.3638 20.6497 16.9453 21.4933C15.5268 22.3369 14.4359 23.636 13.8502 25.179C13.2646 26.722 13.2189 28.4179 13.7205 29.9902C14.2221 31.5626 15.2414 32.9187 16.6124 33.8375C15.626 32.8177 14.9581 31.5328 14.6901 30.1396C14.4221 28.7464 14.5657 27.3053 15.1033 25.9924C15.6409 24.6795 16.5492 23.5516 17.7174 22.7464C18.8855 21.9413 20.2629 21.4938 21.6812 21.4587L21.6616 21.4261Z" fill="#69C9D0"/>
</svg>
