<?xml version="1.0" encoding="UTF-8"?>
<svg id="_Слой_1" data-name="Слой 1" xmlns="http://www.w3.org/2000/svg" viewBox="0 0 984.25 303.12">
  <defs>
    <style>
      .cls-1, .cls-2 {
        fill: #fff;
      }

      .cls-2 {
        fill-rule: evenodd;
      }
    </style>
  </defs>
  <g>
    <path class="cls-2" d="m286.27,26.71H65.7c-.51.96-26.27,45.49-26.27,45.49l110.36,190.91h52.83l109.92-190.91-26.27-45.49Zm-110.21,190.33L92.56,72.2l167.3.15-83.8,144.69Z"/>
    <polygon class="cls-2" points="26.22 95.53 0 140.98 70.25 263.11 122.93 263.11 26.22 95.53"/>
  </g>
  <path class="cls-1" d="m742.3,0C723.98,0,709.09,10.6,709.09,23.68s14.9,23.68,33.21,23.68,33.21-10.6,33.21-23.68S760.61,0,742.3,0Zm-99.63,18.95l-47.44,11.84v35.52h-28.47v37.89h28.47v99.14c0,20.04,4.27,34.31,12.9,42.94,8.54,8.64,19.74,14.22,33.4,14.22,16.7,0,31.98-2.37,43.84-5.92l-9.49-39.08c-2.37.67-9.68,2.37-15.47,2.37s-10.63-2.96-13.57-7.1c-3.04-4.14-4.55-10.46-4.17-23.33v-83.24h37.95v-37.89h-37.95V18.95Zm268.05,42.62c-19.55-.22-40.71,7.24-54.56,23.69l-4.74-18.94h-37.95v236.82h47.44v-52.1c28.18,16.56,65.66,9.29,85.4-4.53,15.37-10.8,23.91-22.36,29.6-35.14,6.93-15.68,8.35-32.57,8.35-55.4,0-28.57-2.85-44.26-11.77-58.85-7.21-11.85-15.56-19.33-26.19-25.7-8.82-5.29-22.3-9.69-35.58-9.84Zm-533.72,4.74v132.48c0,31.03,27.33,61.7,63.76,61.7,9.39,0,17.55.39,26.47-2.17,12.52-3.64,23.72-9.97,33.11-21.51,4.74,9.47,9.01,14.21,14.23,18.95h37.95c-4.74-9.47-14.23-23.68-14.23-84.4v-105.05h-47.44v118.44c0,18.92-14.23,33.12-33.21,33.12s-33.21-14.21-33.21-33.15v-118.41h-47.44Zm341.58,0v189.45h47.44V66.31h-47.44Zm180.28,33.15c12.34,0,20.59,5.84,25.71,10.95,11.2,11.26,12.05,31.08,12.24,45.89,1.14,30.94-11.29,61.58-46.3,61.58-11.77,0-23.06-6.52-29.6-14.22v-71.04c5.88-19.59,18.79-32.97,37.95-33.15Z"/>
</svg>
