<svg width="48" height="48" viewBox="0 0 48 48" fill="none" xmlns="http://www.w3.org/2000/svg">
<path d="M23.7665 16.4926L20.5597 31.485H16.6808L19.888 16.4926H23.7665ZM40.0845 26.1734L42.1259 20.5434L43.3007 26.1734H40.0845ZM44.4135 31.485H48L44.8667 16.4926H41.5584C40.8128 16.4926 40.1843 16.9249 39.9061 17.5915L34.0863 31.485H38.1597L38.9683 29.246H43.9438L44.4135 31.485ZM34.2883 26.5905C34.3051 22.6337 28.8185 22.4145 28.8552 20.6466C28.867 20.1094 29.3796 19.5372 30.4998 19.3908C31.0552 19.3193 32.5877 19.2613 34.325 20.0619L35.0045 16.8814C34.0714 16.5438 32.8707 16.2188 31.3765 16.2188C27.5422 16.2188 24.8449 18.2555 24.8233 21.1743C24.7987 23.3327 26.7501 24.5362 28.2172 25.2551C29.7299 25.9899 30.2368 26.461 30.2293 27.1175C30.2189 28.1234 29.0232 28.5689 27.9097 28.5857C25.9587 28.6161 24.8277 28.0583 23.9263 27.6382L23.2222 30.9249C24.13 31.3403 25.8025 31.7018 27.5344 31.7204C31.6109 31.7204 34.2761 29.7076 34.2883 26.5905ZM18.2242 16.4926L11.9397 31.485H7.84033L4.7475 19.52C4.56001 18.7842 4.39647 18.5138 3.82626 18.2029C2.89355 17.6964 1.35387 17.2226 0 16.9279L0.0917206 16.4926H6.69148C7.53213 16.4926 8.28848 17.052 8.48102 18.0204L10.1148 26.6967L14.1494 16.4926H18.2242Z" fill="white"/>
</svg>
