<svg width="24" height="24" viewBox="0 0 24 24" fill="none" xmlns="http://www.w3.org/2000/svg">
<path d="M3.04045 18.7214L3.48767 18.945L3.62599 18.6684L3.44021 18.4211L3.04045 18.7214ZM5.28013 20.9611L5.58044 20.5613L5.33316 20.3756L5.05652 20.5139L5.28013 20.9611ZM0.800781 23.2008L0.353568 22.9772C0.25732 23.1697 0.295048 23.4022 0.447228 23.5543C0.599408 23.7065 0.831894 23.7442 1.02439 23.648L0.800781 23.2008ZM7.20078 7.20078L6.92343 6.78476C6.78433 6.87749 6.70078 7.0336 6.70078 7.20078H7.20078ZM16.8008 16.8008V17.3008C16.968 17.3008 17.1241 17.2172 17.2168 17.0781L16.8008 16.8008ZM10.0076 8.04165L10.5008 7.95945L10.0076 8.04165ZM10.2307 9.38032L9.73751 9.46252L10.2307 9.38032ZM9.54 10.9746L9.81734 11.3907H9.81735L9.54 10.9746ZM15.9599 13.994L16.0421 13.5008V13.5008L15.9599 13.994ZM14.6212 13.7709L14.539 14.2641L14.6212 13.7709ZM13.0269 14.4616L12.6109 14.1842L13.0269 14.4616ZM0.300781 12.0008C0.300781 14.6344 1.17155 17.0661 2.64069 19.0218L3.44021 18.4211C2.09671 16.6327 1.30078 14.4104 1.30078 12.0008H0.300781ZM12.0008 0.300781C5.53905 0.300781 0.300781 5.53905 0.300781 12.0008H1.30078C1.30078 6.09133 6.09133 1.30078 12.0008 1.30078V0.300781ZM23.7008 12.0008C23.7008 5.53905 18.4625 0.300781 12.0008 0.300781V1.30078C17.9102 1.30078 22.7008 6.09133 22.7008 12.0008H23.7008ZM12.0008 23.7008C18.4625 23.7008 23.7008 18.4625 23.7008 12.0008H22.7008C22.7008 17.9102 17.9102 22.7008 12.0008 22.7008V23.7008ZM4.97981 21.3609C6.93542 22.83 9.36713 23.7008 12.0008 23.7008V22.7008C9.59113 22.7008 7.36882 21.9049 5.58044 20.5613L4.97981 21.3609ZM1.02439 23.648L5.50373 21.4083L5.05652 20.5139L0.577174 22.7536L1.02439 23.648ZM2.59324 18.4978L0.353568 22.9772L1.24799 23.4244L3.48767 18.945L2.59324 18.4978ZM6.70078 7.20078V8.80078H7.70078V7.20078H6.70078ZM15.2008 17.3008H16.8008V16.3008H15.2008V17.3008ZM6.70078 8.80078C6.70078 13.4952 10.5064 17.3008 15.2008 17.3008V16.3008C11.0586 16.3008 7.70078 12.9429 7.70078 8.80078H6.70078ZM7.47813 7.61681L7.81919 7.38943L7.26449 6.55738L6.92343 6.78476L7.47813 7.61681ZM9.5144 8.12385L9.73751 9.46252L10.7239 9.29812L10.5008 7.95945L9.5144 8.12385ZM9.26264 10.5586L7.72343 11.5848L8.27813 12.4168L9.81734 11.3907L9.26264 10.5586ZM9.73751 9.46252C9.80867 9.88949 9.62281 10.3185 9.26264 10.5586L9.81735 11.3907C10.5049 10.9323 10.8598 10.1132 10.7239 9.29812L9.73751 9.46252ZM7.81919 7.38943C8.48335 6.94666 9.38317 7.33649 9.5144 8.12385L10.5008 7.95945C10.2503 6.4563 8.53244 5.71209 7.26449 6.55738L7.81919 7.38943ZM17.2168 17.0781L17.4442 16.7371L16.6121 16.1824L16.3848 16.5234L17.2168 17.0781ZM16.0421 13.5008L14.7034 13.2777L14.539 14.2641L15.8777 14.4872L16.0421 13.5008ZM12.6109 14.1842L11.5848 15.7234L12.4168 16.2781L13.4429 14.7389L12.6109 14.1842ZM14.7034 13.2777C13.8883 13.1418 13.0693 13.4966 12.6109 14.1842L13.4429 14.7389C13.6831 14.3788 14.1121 14.1929 14.539 14.2641L14.7034 13.2777ZM17.4442 16.7371C18.2895 15.4691 17.5453 13.7513 16.0421 13.5008L15.8777 14.4872C16.6651 14.6184 17.0549 15.5182 16.6121 16.1824L17.4442 16.7371Z" fill="currentColor"/>
</svg>
