<?xml version="1.0" encoding="utf-8"?><svg viewBox="0 0 80 80" xmlns="http://www.w3.org/2000/svg" xmlns:xlink="http://www.w3.org/1999/xlink"><style>:root>svg{display:none}:root>svg:target{display:block}</style><svg fill="none" viewBox="0 0 80 80" id="arrow-left" xmlns="http://www.w3.org/2000/svg"><path d="M46 24 30 40l16 16" stroke="currentColor"/><circle cx="40" cy="40" r="39.75" transform="matrix(-1 0 0 1 80 0)" stroke="currentColor" stroke-opacity=".5" stroke-width=".5"/></svg><svg fill="none" viewBox="0 0 80 80" id="arrow-right" xmlns="http://www.w3.org/2000/svg"><path d="m34 24 16 16-16 16" stroke="currentColor"/><circle cx="40" cy="40" r="39.75" stroke="currentColor" stroke-opacity=".5" stroke-width=".5"/></svg><svg fill="none" viewBox="0 0 28 14" id="burger" xmlns="http://www.w3.org/2000/svg"><path d="M1 1h26M1 7h26M1 13h26" stroke="#fff" stroke-linecap="round"/></svg><svg fill="none" viewBox="0 0 24 24" id="cascading" xmlns="http://www.w3.org/2000/svg"><path d="M2 17.059h10" stroke="#6EFFB9" stroke-width="1.5" stroke-miterlimit="10" stroke-linecap="round" stroke-linejoin="round"/><path d="M4.22 13.5h5.56c1.78 0 2.22.44 2.22 2.2v4.11c0 1.76-.44 2.2-2.22 2.2H4.22c-1.78 0-2.22-.44-2.22-2.2V15.7c0-1.76.44-2.2 2.22-2.2ZM22 15c0 3.87-3.13 7-7 7l1.05-1.75M2 9c0-3.87 3.13-7 7-7L7.95 3.75M18.5 11a4.5 4.5 0 1 0 0-9 4.5 4.5 0 0 0 0 9Z" stroke="#6EFFB9" stroke-width="1.5" stroke-linecap="round" stroke-linejoin="round"/></svg><svg fill="none" viewBox="0 0 64 64" id="chat" xmlns="http://www.w3.org/2000/svg"><circle cx="32" cy="32" r="31.5" stroke="#fff"/><path d="M39 14.5H25c-7 0-10.5 3.5-10.5 10.5v22.75c0 .962.787 1.75 1.75 1.75H39c7 0 10.5-3.5 10.5-10.5V25c0-7-3.5-10.5-10.5-10.5ZM23.25 27.625h17.5M23.25 36.375H35.5" stroke="#fff" stroke-width="1.5" stroke-miterlimit="10" stroke-linecap="round" stroke-linejoin="round"/></svg><svg fill="none" viewBox="0 0 12 7" id="chevron" xmlns="http://www.w3.org/2000/svg"><path d="m1 6.5 5-5 5 5" stroke="currentColor"/></svg><svg fill="none" viewBox="0 0 24 11" id="chevron-2" xmlns="http://www.w3.org/2000/svg"><path d="m1 .5 11 9 11-9" stroke="#fff"/></svg><svg fill="none" viewBox="0 0 26 26" id="cross" xmlns="http://www.w3.org/2000/svg"><path d="m1 1 24 24M1 25 25 1" stroke="#fff"/></svg><svg fill="none" viewBox="0 0 24 24" id="crypto" xmlns="http://www.w3.org/2000/svg"><path d="M4.47 11.42 2.73 9.68 1 11.42M19.53 12.58l1.74 1.74 1.74-1.74" stroke="#6EFFB9" stroke-width="1.5" stroke-linecap="round" stroke-linejoin="round"/><path d="M21.26 14.32V12c0-5.12-4.15-9.26-9.26-9.26-2.92 0-5.53 1.36-7.23 3.47M2.74 9.68V12c0 5.12 4.15 9.26 9.26 9.26 2.92 0 5.53-1.36 7.23-3.47" stroke="#6EFFB9" stroke-width="1.5" stroke-linecap="round" stroke-linejoin="round"/><path d="M9 8.5h4.38c.97 0 1.75.88 1.75 1.75 0 .97-.78 1.75-1.75 1.75H9V8.5ZM9 12h5c1.1 0 2 .78 2 1.75s-.9 1.75-2 1.75H9V12ZM11.8 15.5v1.75M11.8 6.75V8.5" stroke="#6EFFB9" stroke-width="1.5" stroke-miterlimit="10" stroke-linecap="round" stroke-linejoin="round"/></svg><svg fill="none" viewBox="0 0 24 24" id="envelope-button" xmlns="http://www.w3.org/2000/svg"><path d="M.8 7.2 12 13.6l11.2-6.4M2.4 2.4h19.2A1.6 1.6 0 0 1 23.2 4v16a1.6 1.6 0 0 1-1.6 1.6H2.4A1.6 1.6 0 0 1 .8 20V4a1.6 1.6 0 0 1 1.6-1.6Z" stroke="currentColor"/></svg><svg fill="none" viewBox="0 0 24 24" id="localisation" xmlns="http://www.w3.org/2000/svg"><path d="M22 8.5a6.5 6.5 0 0 1-7.02 6.48 6.509 6.509 0 0 0-5.96-5.96A6.5 6.5 0 1 1 22 8.5Z" stroke="#6EFFB9" stroke-width="1.5" stroke-linecap="round" stroke-linejoin="round"/><path d="M15 15.5a6.5 6.5 0 1 1-13 0 6.5 6.5 0 0 1 13 0Z" stroke="#6EFFB9" stroke-width="1.5" stroke-linecap="round" stroke-linejoin="round"/><path d="M7.62 14.62 8.5 13l.88 1.62 1.62.88-1.62.88L8.5 18l-.88-1.62L6 15.5l1.62-.88Z" stroke="#6EFFB9" stroke-width="1.5" stroke-linecap="round" stroke-linejoin="round"/></svg><svg fill="none" viewBox="0 0 12 12" id="menu-closed" xmlns="http://www.w3.org/2000/svg"><circle cx="2" cy="2" r="2" fill="currentColor"/><circle cx="2" cy="10" r="2" fill="currentColor"/><circle cx="10" cy="2" r="2" fill="currentColor"/><circle cx="10" cy="10" r="2" fill="currentColor"/></svg><svg fill="none" viewBox="0 0 22 4" id="menu-opened" xmlns="http://www.w3.org/2000/svg"><circle cx="8" cy="2" r="2" fill="currentColor"/><circle cx="2" cy="2" r="2" fill="currentColor"/><circle cx="20" cy="2" r="2" fill="currentColor"/><circle cx="14" cy="2" r="2" fill="currentColor"/></svg><svg fill="none" viewBox="0 0 24 24" id="payment-bot" xmlns="http://www.w3.org/2000/svg"><path d="M22 8.5a6.5 6.5 0 0 1-7.02 6.48 6.509 6.509 0 0 0-5.96-5.96A6.5 6.5 0 1 1 22 8.5Z" stroke="#6EFFB9" stroke-width="1.5" stroke-linecap="round" stroke-linejoin="round"/><path d="M15 15.5a6.5 6.5 0 1 1-13 0 6.5 6.5 0 0 1 13 0ZM5.59 2H3c-.55 0-1 .45-1 1v2.59c0 .89 1.08 1.34 1.71.71L6.3 3.71C6.92 3.08 6.48 2 5.59 2ZM18.41 22H21c.55 0 1-.45 1-1v-2.59c0-.89-1.08-1.34-1.71-.71l-2.59 2.59c-.62.63-.18 1.71.71 1.71Z" stroke="#6EFFB9" stroke-width="1.5" stroke-linecap="round" stroke-linejoin="round"/></svg><svg fill="none" viewBox="0 0 24 24" id="routing" xmlns="http://www.w3.org/2000/svg"><path d="M2 8.5h11M6 16.5h2M10.5 16.5h4" stroke="#6EFFB9" stroke-width="1.5" stroke-miterlimit="10" stroke-linecap="round" stroke-linejoin="round"/><path d="M22 11.33v4.78c0 3.51-.89 4.39-4.44 4.39H6.44C2.89 20.5 2 19.62 2 16.11V7.89c0-3.51.89-4.39 4.44-4.39h6.84" stroke="#6EFFB9" stroke-width="1.5" stroke-linecap="round" stroke-linejoin="round"/><path d="M17 3.25h3.13c.69 0 1.25.63 1.25 1.25 0 .69-.56 1.25-1.25 1.25H17v-2.5ZM17 5.75h3.57c.79 0 1.43.56 1.43 1.25s-.64 1.25-1.43 1.25H17v-2.5ZM18.76 8.25V9.5M18.76 2v1.25M18.19 3.25H16M18.19 8.25H16" stroke="#6EFFB9" stroke-width="1.5" stroke-miterlimit="10" stroke-linecap="round" stroke-linejoin="round"/></svg><svg fill="none" viewBox="0 0 24 24" id="telegram-button" xmlns="http://www.w3.org/2000/svg"><path d="m23.2 2.4-22.4 8 6.4 3.2 9.6-6.4-6.4 8 9.6 6.4 3.2-19.2Z" stroke="currentColor" stroke-linejoin="round"/></svg><svg fill="none" viewBox="0 0 24 24" id="whatsapp-button" xmlns="http://www.w3.org/2000/svg"><path d="m3.04 18.721.448.224.138-.277-.186-.247-.4.3Zm2.24 2.24.3-.4-.247-.185-.276.138.223.447ZM.8 23.201l-.446-.224a.5.5 0 0 0 .67.671l-.223-.447Zm6.4-16-.277-.416a.5.5 0 0 0-.222.416h.5Zm9.6 9.6v.5a.5.5 0 0 0 .417-.223l-.416-.277Zm-6.792-8.76.493-.082-.493.083Zm.223 1.34-.493.082.493-.083Zm-.691 1.594.277.416-.277-.416Zm6.42 3.019.082-.493-.082.493Zm-1.339-.223-.082.493.082-.493Zm-1.594.69-.416-.277.416.278ZM.3 12.002c0 2.633.87 5.065 2.34 7.02l.8-.6a10.65 10.65 0 0 1-2.14-6.42h-1ZM12 .3C5.539.3.3 5.539.3 12h1C1.3 6.09 6.09 1.3 12 1.3v-1ZM23.7 12C23.7 5.539 18.462.3 12 .3v1c5.91 0 10.7 4.79 10.7 10.7h1ZM12 23.7c6.461 0 11.7-5.239 11.7-11.7h-1c0 5.91-4.79 10.7-10.7 10.7v1ZM4.98 21.36A11.65 11.65 0 0 0 12 23.7v-1a10.65 10.65 0 0 1-6.42-2.14l-.6.8Zm-3.956 2.287 4.48-2.24-.447-.894-4.48 2.24.447.894Zm1.57-5.15-2.24 4.48.894.446 2.24-4.479-.895-.447ZM6.7 7.2v1.6h1V7.2h-1Zm8.5 10.1h1.6v-1h-1.6v1ZM6.7 8.8a8.5 8.5 0 0 0 8.5 8.5v-1a7.5 7.5 0 0 1-7.5-7.5h-1Zm.777-1.184.341-.228-.555-.832-.34.228.554.832Zm2.036.507.224 1.339.986-.165L10.5 7.96l-.987.165Zm-.251 2.435-1.54 1.026.555.832 1.54-1.026-.555-.832Zm.475-1.096a1.1 1.1 0 0 1-.475 1.096l.554.832a2.1 2.1 0 0 0 .907-2.093l-.986.165ZM7.819 7.389a1.1 1.1 0 0 1 1.695.735l.987-.165a2.1 2.1 0 0 0-3.237-1.402l.555.832Zm9.398 9.69.227-.342-.832-.555-.227.341.832.555ZM16.042 13.5l-1.339-.223-.164.986 1.339.223.164-.986Zm-3.431.683-1.026 1.54.832.554 1.026-1.54-.832-.554Zm2.092-.906a2.1 2.1 0 0 0-2.092.906l.832.555a1.1 1.1 0 0 1 1.096-.475l.164-.986Zm2.741 3.46a2.1 2.1 0 0 0-1.402-3.237l-.164.986a1.1 1.1 0 0 1 .734 1.695l.832.555Z" fill="currentColor"/></svg></svg>